<?xml version="1.0" encoding="UTF-8"?>
<svg id="Layer_2" data-name="Layer 2" xmlns="http://www.w3.org/2000/svg" viewBox="0 0 1140.69 1140.69">
  <defs>
    <style>
      .cls-1 {
        fill: #234f96;
      }

      .cls-2 {
        fill: #fff;
      }
    </style>
  </defs>
  <g>
    <g id="LK6nc3">
      <g>
        <path class="cls-1" d="M357.29,420.73c-.86-.08-1.73-.12-2.6-.12-3.34,0-6.66.57-9.86,1.69-.47.16-.94.34-1.4.52-.76-6.41-.63-14.31-5.73-17.02-1.56-.73-3.44-.82-5.28-.87-11.8-.12-35.95-.24-47.68-.33-7.33-.21-11.2.77-13.34,8.51-1.91,6.08.19,17.14-7.27,19.62-1.75.43-3.62-.2-5.04-1.69-3.43-3.79-3.41-9.95-3.22-14.91.88-14.47,6.34-23.64,20.71-26.4h.07c2.65-.54,5.24-.78,7.93-.95,13.57-.71,32.15-.9,47.07.2,11.34.55,20.41,5.32,23.96,16.74,1.39,4.74,2.1,9.99,1.69,15.01Z"/>
        <path class="cls-1" d="M324.68,765.91c-24.14-2.95-48.91,2.07-72.99-1.05-20.5-3.36-25.51-15.85-26.28-34.94-.59-12.42-1.58-26.06-1.22-38.08,2.39-44.77.75-123.75,1.19-182.07-.01-5.24.01-10.23,0-15.37.02-5.3-.16-10.09,2-14.79,4.5-10.38,17.08-16.41,28.42-17.06,22.08-1.31,44.4.27,66.6.61.57-3.48,1.04-7.01,1.39-10.55.09-1.21.22-2.39.39-3.54-20.25-.07-40.62-1.16-60.82-.97-12.12.13-25.11,1.06-35.34,8.1-8.4,6-14.82,15.13-16.45,24.5-1.09,49.34.09,158.9-.33,228.42.09,15.94-.1,25.17.03,34.25.09,8.43,4.37,16.14,10.08,22.63,12.37,14.14,25.81,14.02,45.37,13.76,13.49.04,27.81.04,41.22.07,8.92-.36,17.32.95,24.88-1.47,9.55-3.9.62-11.2-8.16-12.45ZM647.89,408.52c-3.68-19.38-13.01-33.01-31.6-40.85-11.67-4.99-24.41-6.14-36.97-6.57-43.28-1.2-88.05,1.86-131.68,1.16-4.48.05-8.94.24-13.35.75-18.15,1.74-36.82,11.59-43.62,29.28-4.14,10.12-3.82,21.54-6.84,31.93-.62,2.35-1.46,4.54-2.5,6.57,5.88-4.9,12.1-8.7,18.62-11.35,1.01-6.97,1.71-13.99,4.17-20.35,8.03-20.88,33.46-23.48,52.99-23.96,42.76-.86,86.9,1.57,129.92,1.31,4.75.23,9.48.72,14.1,1.75,13.17,2.61,25.38,11.3,29.18,24.54,2.1,6.47,2.71,12.64,4.46,18.74,1.12,3.98,2.8,7.8,4.8,11.44,3.14-4.32,7.3-7.65,12.32-9.79-1.71-4.66-2.89-9.67-4-14.58Z"/>
      </g>
    </g>
    <g>
      <path class="cls-1" d="M410.84,757.07c-1.41-1.19-2.23-2.54-2.47-4.03-.24-1.49-.2-3.08.12-4.76.7-3.31,1.73-6.49,3.08-9.53,1.35-3.04,2.54-6.16,3.57-9.36.81-2.55,1.64-5.07,2.48-7.57.84-2.5,1.39-5.1,1.66-7.82.11-1.57.7-2.55,1.79-2.93,1.08-.38,2.24.05,3.49,1.3.92.92,1.66,1.33,2.23,1.22.57-.11,1.26-.54,2.07-1.3,1.35-1.19,2.8-1.95,4.34-2.28,1.54-.33,3.03-.26,4.46.2,1.43.46,2.72,1.29,3.85,2.48,1.14,1.19,2,2.69,2.6,4.48.54,1.9.76,3.96.65,6.19-.11,2.23-.51,4.42-1.22,6.59-.7,2.17-1.65,4.21-2.84,6.11-1.19,1.9-2.57,3.42-4.14,4.56-2.11,1.57-4.31,2.44-6.61,2.61-2.3.16-4.72-.27-7.26-1.3-.16,2.12-.2,4.18-.12,6.19.08,2.01.42,3.96,1.01,5.86.43,1.25.45,2.24.04,2.97-.41.73-1.2,1.32-2.39,1.75-3.9,1.41-7.36.87-10.39-1.63ZM428.69,720.68c-1.19,1.52-2.08,3.13-2.68,4.84-.6,1.71-.76,3.54-.49,5.5.16,1.36.69,2.23,1.58,2.61.89.38,1.91.19,3.04-.57.81-.54,1.47-1.18,1.99-1.91.51-.73.93-1.51,1.26-2.32.32-.81.58-1.64.77-2.48.19-.84.37-1.7.53-2.56,0-1.03-.26-1.84-.77-2.44-.51-.6-1.15-1.09-1.91-1.47-1.35-.65-2.46-.38-3.33.81Z"/>
      <path class="cls-1" d="M450.19,758.05c-1.14.16-2.23.14-3.29-.08-1.05-.22-1.99-.61-2.8-1.18s-1.49-1.29-2.03-2.16c-.54-.87-.89-1.84-1.05-2.93-.49-3.58.03-7.08,1.54-10.5,1.41-3.04,2.8-6.05,4.18-9.04,1.38-2.98,2.77-6,4.18-9.04.65-1.41,1.16-2.81,1.54-4.19.38-1.38.49-2.86.32-4.44-.11-.92-.04-1.76.2-2.52.24-.76.88-1.3,1.91-1.63,1.03-.27,1.97-.24,2.84.08.86.33,1.51.92,1.95,1.79.32.6.64,1.02.93,1.26.3.24.59.34.89.28.3-.05.59-.2.89-.45.3-.24.61-.56.93-.94,2.6-2.61,5.71-3.2,9.33-1.79,1.73.76,3.02,1.81,3.85,3.13.84,1.33,1.31,2.94,1.42,4.84.16,3.37-.18,6.53-1.01,9.48-.84,2.96-2.64,5.58-5.4,7.86-1.03.81-2.1,1.52-3.21,2.12-1.11.6-2.34.95-3.69,1.06-.7.05-1.19.23-1.46.53-.27.3-.22.83.16,1.59.32.76.61,1.56.85,2.4.24.84.53,1.67.85,2.48.16.43.35.84.57,1.22.22.38.47.71.77.98.3.27.65.45,1.05.53s.88.01,1.42-.2c1.08-.43,1.89-1.03,2.43-1.79.54-.76.7-1.76.49-3.01-.05-.33-.16-.64-.32-.94-.16-.3-.28-.61-.37-.94-.08-.33-.08-.62,0-.9.08-.27.34-.54.77-.81.76-.43,1.5-.5,2.23-.2.73.3,1.42.64,2.07,1.02,1.35.81,2.3,1.86,2.84,3.13.54,1.28.76,2.67.65,4.19-.11,1.47-.5,2.84-1.18,4.11-.68,1.28-1.56,2.42-2.64,3.42-1.08,1-2.35,1.82-3.81,2.44-1.46.62-3,.99-4.63,1.1-2.71.16-4.94-.56-6.69-2.16-1.76-1.6-2.88-4-3.37-7.21-.27-1.79-.46-3.61-.57-5.45-.11-1.84-.24-3.69-.41-5.54-.05-.27-.11-.56-.16-.85-.05-.3-.3-.56-.73-.77-.81,2.06-1.25,4.15-1.3,6.27-.05,2.12.11,4.23.49,6.35.43,2.61.32,4.49-.32,5.66-.65,1.17-2.03,1.94-4.14,2.32ZM466.5,719.21c-.6,0-1.18.19-1.74.57-.57.38-1.08.9-1.54,1.55-.46.65-.84,1.4-1.14,2.24-.3.84-.45,1.67-.45,2.48.05.98.27,1.78.65,2.4.38.62,1.08.94,2.11.94,1.57-.05,2.84-.72,3.81-1.99.97-1.27,1.41-2.84,1.3-4.68-.05-.92-.28-1.72-.69-2.4-.41-.68-1.18-1.04-2.31-1.1Z"/>
      <path class="cls-1" d="M498.55,759.19c-1.79.38-3.54.41-5.27.08-1.73-.33-3.3-.95-4.71-1.87-1.41-.92-2.6-2.12-3.57-3.58-.97-1.47-1.65-3.12-2.03-4.97-1.25-6.51-.99-12.56.77-18.16,1.76-5.59,4.8-10.83,9.13-15.71.38-.43.78-.83,1.22-1.18.43-.35.86-.69,1.3-1.02,2.27-1.57,4.53-2.51,6.78-2.81,2.24-.3,4.3-.04,6.17.77,1.87.81,3.46,2.14,4.79,3.99,1.32,1.85,2.2,4.15,2.64,6.92.16,1.09.26,2.2.28,3.34.03,1.14.09,2.25.2,3.34.16,3.47-.11,6.84-.81,10.1-.7,3.26-1.73,6.43-3.08,9.53-1.3,3.09-3.11,5.56-5.44,7.41-2.33,1.85-5.11,3.12-8.36,3.83ZM499.61,721.33c-3.25,3.09-5.41,6.53-6.49,10.3-1.08,3.77-1.54,7.78-1.38,12.01.05,1.41.47,2.66,1.26,3.75.78,1.09,1.93,1.79,3.45,2.12,1.46.33,2.7.14,3.73-.57,1.03-.7,1.89-1.65,2.6-2.85,3.08-5.21,4.73-10.83,4.95-16.85-.05-1.03-.12-2.04-.2-3.01-.08-.98-.28-1.95-.61-2.93-1.52-4.45-3.95-5.1-7.3-1.95Z"/>
      <path class="cls-1" d="M537.75,755.28c-1.68,1.52-3.45,2.63-5.32,3.34-1.87.71-3.71,1.02-5.52.94-1.81-.08-3.56-.53-5.23-1.34-1.68-.81-3.19-2.01-4.54-3.58-.76-.92-1.25-1.82-1.46-2.69-.22-.87-.11-1.87.32-3.01,1.62-4.83,3.16-9.65,4.63-14.45s2.57-9.76,3.33-14.86c.11-.6.18-1.19.2-1.79.03-.6.07-1.19.12-1.79.05-1.3.17-2.37.37-3.22.19-.84.57-1.48,1.14-1.91.57-.43,1.34-.73,2.31-.9.97-.16,2.27-.22,3.9-.16,2.43-.05,4.68.6,6.73,1.95,2.06,1.36,3.87,3.37,5.44,6.02,1.89,3.15,3.02,6.51,3.37,10.1.35,3.58.16,7.08-.57,10.5-.73,3.42-1.92,6.62-3.57,9.61-1.65,2.99-3.53,5.4-5.64,7.25ZM527.36,745.19c-.11,1.36.08,2.13.57,2.32.49.19,1.22.01,2.19-.53,1.24-.7,2.28-1.56,3.12-2.56.84-1,1.58-2.13,2.23-3.38.81-1.52,1.38-3.12,1.7-4.8.32-1.68.41-3.31.24-4.88-.16-1.57-.57-3.05-1.22-4.44-.65-1.38-1.54-2.54-2.68-3.46-.22,2.71-.72,5.24-1.5,7.57-.78,2.33-1.66,4.64-2.64,6.92-.54,1.14-.99,2.32-1.34,3.54-.35,1.22-.58,2.46-.69,3.7Z"/>
      <path class="cls-1" d="M548.7,748.36c-.11-2.44.07-4.8.53-7.08.46-2.28,1.15-4.53,2.07-6.76,1.51-3.58,2.97-7.16,4.38-10.75,1.41-3.58,2.27-7.35,2.6-11.32.11-1.36.57-2.18,1.38-2.48.81-.3,1.81-.12,3,.53,1.57.81,2.62,2.02,3.16,3.62.54,1.6.57,3.46.08,5.58-.65,2.61-1.3,5.17-1.95,7.69-.65,2.52-1.27,5.09-1.87,7.69-.22.87-.32,1.76-.32,2.69s-.03,1.85-.08,2.77c0,.54.09,1.06.28,1.55.19.49.58.84,1.18,1.06.59.27,1.16.3,1.7.08.54-.22,1-.57,1.38-1.06.43-.6.85-1.18,1.26-1.75s.74-1.18,1.01-1.83c1.51-3.64,2.84-7.3,3.98-10.99,1.14-3.69,1.84-7.54,2.11-11.56,0-.43-.04-.88-.12-1.34-.08-.46-.12-.92-.12-1.38s.11-.87.32-1.22c.22-.35.65-.61,1.3-.77,1.24-.33,2.31-.14,3.21.57.89.71,1.64,1.55,2.23,2.52.59.87.93,1.78,1.01,2.73.08.95.09,1.91.04,2.89-.11,2.39-.43,4.74-.97,7.04-.54,2.31-1.05,4.6-1.54,6.88-.27,1.09-.5,2.16-.69,3.22-.19,1.06-.2,2.13-.04,3.22.27,1.68.77,2.84,1.5,3.46.73.62,1.96.94,3.69.94,1.08,0,1.96.26,2.64.77.68.52,1.04,1.4,1.1,2.65.16,4.99-1.81,8.39-5.92,10.18-2.27.98-4.27,1.29-6.01.94-1.73-.35-3.46-1.48-5.19-3.38-.65-.7-1.19-1.02-1.62-.94-.43.08-.95.34-1.54.77-1.95,1.58-4.3,2.52-7.06,2.85-3.41.38-6.22-.38-8.44-2.28-2.22-1.9-3.44-4.56-3.65-7.98Z"/>
      <path class="cls-1" d="M609.48,755.36c-2.43,1.95-4.96,3.2-7.59,3.74-2.62.54-5.13.43-7.51-.33-2.38-.76-4.48-2.12-6.29-4.07-1.81-1.95-3.12-4.42-3.94-7.41-.76-2.93-.97-6.07-.65-9.4s1.1-6.59,2.31-9.77c1.22-3.18,2.81-6.12,4.79-8.83,1.97-2.71,4.23-4.91,6.78-6.59,1.68-1.09,3.43-1.91,5.27-2.48,1.84-.57,3.79-.56,5.84.04,1.57.44,2.88,1.17,3.94,2.2,1.05,1.03,1.72,2.33,1.99,3.91.27,1.63.03,3.07-.73,4.32-.76,1.25-1.7,2.39-2.84,3.42-.87.76-1.54.96-2.03.61-.49-.35-.78-1.04-.89-2.08-.05-.65-.07-1.34-.04-2.08.03-.73-.37-1.26-1.18-1.59-.81-.27-1.5-.13-2.07.41-.57.54-1.1,1.06-1.58,1.55-.97.92-1.89,2.08-2.76,3.46-.87,1.38-1.61,2.85-2.23,4.4-.62,1.55-1.11,3.12-1.46,4.72-.35,1.6-.53,3.08-.53,4.44-.05,1.95.38,3.91,1.3,5.86.49.98,1.11,1.72,1.87,2.24.76.52,1.57.81,2.43.9.86.08,1.7-.08,2.52-.49s1.54-1.07,2.19-1.99c.11-.22.2-.42.28-.61.08-.19.2-.37.37-.53.22-.27.38-.64.49-1.1.11-.46.23-.9.37-1.3.13-.41.34-.73.61-.98.27-.24.7-.28,1.3-.12,1.24.33,2.23,1.01,2.96,2.04.73,1.03,1.15,2.2,1.26,3.5.27,2.06-.03,3.92-.89,5.58-.87,1.66-2.08,3.13-3.65,4.44Z"/>
      <path class="cls-1" d="M639.02,755.61c-1.3,1.57-2.85,2.69-4.67,3.34-1.81.65-3.58.7-5.32.16-1.79-.6-3.21-1.65-4.26-3.18-1.05-1.52-1.64-3.36-1.74-5.54-.11-3.2.31-6.23,1.26-9.08.95-2.85,2.04-5.69,3.29-8.51.86-1.9,1.79-3.8,2.76-5.7.97-1.9,1.81-3.93,2.52-6.11-1.08.11-2.08.2-3,.28-.92.08-1.84.12-2.76.12-2.16-.05-4.15-.73-5.96-2.04s-3.1-2.98-3.85-5.05c-.43-.98-.32-1.82.32-2.52.65-.76,1.38-.9,2.19-.41,1.68.98,3.38,1.62,5.11,1.91,1.73.3,3.45.38,5.15.24,1.7-.13,3.41-.42,5.11-.85,1.7-.43,3.42-.9,5.15-1.38.97-.27,1.95-.57,2.92-.9.97-.33,1.97-.52,3-.57,1.84-.11,3.49.22,4.95.98,1.46.76,2.52,1.87,3.16,3.34.7,1.57.78,3.01.24,4.31-.54,1.3-1.27,2.58-2.19,3.83-.49.6-1.01,1.03-1.58,1.3-.57.27-1.18-.05-1.83-.98-.32-.38-.73-.7-1.22-.98-2.49-1.63-4.29-2.24-5.4-1.83-1.11.41-1.99,2.05-2.64,4.93-.65,2.77-1.3,5.52-1.95,8.26-.65,2.74-.97,5.58-.97,8.51.05,1.85.22,3.62.49,5.33.27,1.71.95,3.35,2.03,4.93.49.71.69,1.36.61,1.95-.08.6-.39,1.22-.93,1.87Z"/>
      <path class="cls-1" d="M656.54,759.43c-1.08-.05-2.07-.31-2.96-.77-.89-.46-1.68-1.1-2.35-1.91-.68-.81-1.19-1.78-1.54-2.89-.35-1.11-.53-2.32-.53-3.62,0-2.06.17-4.1.53-6.11.35-2.01.82-3.99,1.42-5.94.86-2.88,1.74-5.71,2.64-8.51.89-2.8,1.8-5.6,2.72-8.43.43-1.36.74-2.73.93-4.11.19-1.38.18-2.78-.04-4.19-.11-.6-.11-1.17,0-1.71.11-.54.51-.95,1.22-1.22.76-.22,1.43-.26,2.03-.12.59.14,1.14.56,1.62,1.26.92,1.3,1.47,2.69,1.66,4.15.19,1.47.26,2.96.2,4.48-.05,2.55-.31,5.04-.77,7.45-.46,2.42-.93,4.84-1.42,7.29-.32,1.58-.61,3.12-.85,4.64-.24,1.52-.37,3.04-.37,4.56s.15,3.04.45,4.56c.3,1.52.82,3.04,1.58,4.56.38.65.43,1.37.16,2.16-.27.79-.72,1.52-1.34,2.2-.62.68-1.38,1.24-2.27,1.67-.89.44-1.8.62-2.72.57Z"/>
      <path class="cls-1" d="M681.37,759.19c-1.79.38-3.54.41-5.27.08-1.73-.33-3.3-.95-4.71-1.87-1.41-.92-2.6-2.12-3.57-3.58-.97-1.47-1.65-3.12-2.03-4.97-1.25-6.51-.99-12.56.77-18.16,1.76-5.59,4.8-10.83,9.13-15.71.38-.43.78-.83,1.22-1.18.43-.35.86-.69,1.3-1.02,2.27-1.57,4.53-2.51,6.78-2.81,2.24-.3,4.3-.04,6.17.77,1.87.81,3.46,2.14,4.79,3.99,1.33,1.85,2.2,4.15,2.64,6.92.16,1.09.26,2.2.28,3.34.03,1.14.09,2.25.2,3.34.16,3.47-.11,6.84-.81,10.1-.7,3.26-1.73,6.43-3.08,9.53-1.3,3.09-3.11,5.56-5.44,7.41-2.33,1.85-5.11,3.12-8.36,3.83ZM682.43,721.33c-3.25,3.09-5.41,6.53-6.49,10.3-1.08,3.77-1.54,7.78-1.38,12.01.05,1.41.47,2.66,1.26,3.75.78,1.09,1.93,1.79,3.45,2.12,1.46.33,2.7.14,3.73-.57,1.03-.7,1.89-1.65,2.6-2.85,3.08-5.21,4.73-10.83,4.95-16.85-.05-1.03-.12-2.04-.2-3.01-.08-.98-.28-1.95-.61-2.93-1.52-4.45-3.95-5.1-7.3-1.95Z"/>
      <path class="cls-1" d="M723.98,757.89c-1.68-.87-3.02-2.02-4.02-3.46-1-1.44-1.8-3.03-2.39-4.76-1.03-3.04-1.72-6.11-2.07-9.2-.35-3.09-.61-6.24-.77-9.44-.43,1.79-.85,3.6-1.26,5.41-.41,1.82-.69,3.64-.85,5.45-.16,1.82-.18,3.64-.04,5.45.13,1.82.53,3.65,1.18,5.5.59,1.74.53,3.2-.2,4.4-.73,1.19-2.04,1.9-3.94,2.12-1.41.16-2.73.07-3.98-.28-1.25-.35-2.33-.91-3.25-1.67-.92-.76-1.66-1.72-2.23-2.89-.57-1.17-.88-2.48-.93-3.95-.11-2.33.16-4.59.81-6.76.65-2.17,1.46-4.29,2.43-6.35,1.89-3.96,3.57-7.96,5.03-12.01,1.46-4.04,2.38-8.32,2.76-12.82.11-1.25.7-2.09,1.79-2.52,1.08-.43,2.24-.35,3.49.24,2.22,1.14,3.81,2.63,4.79,4.48.97,1.85,1.57,3.96,1.79,6.35.22,2.44.43,4.86.65,7.25.22,2.39.73,4.75,1.54,7.08.11.33.23.69.37,1.1.13.41.34.99.61,1.75.59-2.12,1.22-4.15,1.87-6.11.65-1.95,1.26-3.89,1.83-5.82.57-1.93,1.03-3.85,1.38-5.78.35-1.93.55-3.89.61-5.9,0-.38-.01-.75-.04-1.1-.03-.35-.01-.72.04-1.1.16-1.14.78-1.93,1.87-2.36.65-.27,1.16-.23,1.54.12.38.35.73.75,1.05,1.18.92,1.25,1.5,2.54,1.74,3.87.24,1.33.2,2.73-.12,4.19-.43,2.12-.88,4.23-1.34,6.35-.46,2.12-.93,4.21-1.42,6.27-.6,2.77-.95,5.55-1.05,8.35-.11,2.8.46,5.5,1.7,8.1.43.92.68,1.75.73,2.48.05.73-.04,1.41-.28,2.04-.24.62-.6,1.22-1.05,1.79-.46.57-.99,1.13-1.58,1.67-1.25,1.14-2.67,1.83-4.26,2.08-1.6.24-3.1-.01-4.5-.77Z"/>
      <path class="cls-1" d="M745.07,757.72c-2.6-1.25-4.49-2.98-5.68-5.21-1.19-2.22-1.84-5.16-1.95-8.79-.11-1.36.26-2.77,1.1-4.23.84-1.47,2.2-2.71,4.1-3.75,1.51-.81,2.97-1.06,4.38-.73,1.41.33,2.79.81,4.14,1.47.54.27.74.67.61,1.18-.14.52-.26,1.02-.37,1.51-.6,1.9-.69,3.53-.28,4.89.41,1.36,1.37,2.61,2.88,3.74.81.6,1.68,1.09,2.6,1.47.92.38,1.87.27,2.84-.33,1.08-.6,1.92-1.36,2.52-2.28.59-.92.84-2.04.73-3.34-.11-1.84-.56-3.5-1.34-4.97-.78-1.47-1.83-2.82-3.12-4.07-1.08-1.03-2.11-2.1-3.08-3.22-.97-1.11-1.84-2.32-2.6-3.62-.7-1.3-1.11-2.69-1.22-4.15-.11-1.47.05-2.9.49-4.31.43-1.41,1.12-2.74,2.07-3.99.95-1.25,2.12-2.33,3.53-3.26,1.3-.81,2.7-1.37,4.22-1.67,1.51-.3,3-.33,4.46-.08s2.84.72,4.14,1.42c1.3.71,2.35,1.66,3.16,2.85,1.08,1.57,1.65,3.15,1.7,4.72.05,1.57-.3,3.2-1.06,4.88-.32.71-.72,1.32-1.18,1.83-.46.52-1.18.72-2.15.61-.92-.11-1.7-.38-2.35-.81-.65-.43-1.11-1.14-1.38-2.12-.11-.27-.18-.58-.2-.94-.03-.35-.08-.66-.16-.94-.08-.27-.23-.5-.45-.69-.22-.19-.57-.28-1.05-.28-.97,0-1.65.35-2.03,1.06-.38.71-.65,1.44-.81,2.2-.43,1.9-.19,3.46.73,4.68.92,1.22,2.03,2.29,3.33,3.22,3.19,2.39,4.98,5.56,5.36,9.53.22,2.17-.03,4.18-.73,6.02-.7,1.85-1.73,3.58-3.08,5.21-1.3,1.63-2.87,3-4.71,4.11-1.84,1.11-3.8,1.91-5.88,2.4-2.08.49-4.18.64-6.29.45-2.11-.19-4.09-.75-5.92-1.67Z"/>
    </g>
    <path class="cls-1" d="M929.55,479.93c-.32-9.01-3.58-18.09-9.68-26.97-4.64-6.8-10.73-12.27-18.13-16.27-7.19-3.89-14.94-6.56-23.05-7.91-8.14-1.34-16.55-1.2-24.96.44-4.01.79-7.91,1.92-11.69,3.38-4.15,1.6-8.15,3.6-11.98,5.99-.96.63-1.9,1.27-2.82,1.92-6.54,4.65-12.17,10.04-16.76,16.1-5.26,6.9-9.13,14.37-11.54,22.18-.87,2.82-1.56,5.74-2.07,8.71-.83,5.1-1.06,10.3-.65,15.45.14,2.02.35,3.77.62,5.33,1.06,6.28,3.17,12.39,6.33,18.25,4.09,7.01,8.83,13.59,14.09,19.59,3.24,3.68,6.58,7.28,9.98,10.74,2.12,2.16,4.27,4.26,6.43,6.31,3.07,2.96,5.87,6.04,8.37,9.24,2.75,3.51,5.14,7.16,7.16,10.92,3.77,7.05,5.96,15.15,6.49,24.2.48,5.84-.53,10.64-3.13,14.64-2.53,3.93-5.98,7.14-10.52,9.82-.35.2-.7.41-1.06.6l-.19.11c-3.9,2.39-7.35,2.83-10.89,1.36-.89-.36-1.78-.75-2.66-1.17-3.48-1.63-6.82-3.63-9.94-5.92-7.12-5.35-11.67-11.15-13.51-17.28-1.86-6.21-1.36-13.92,1.47-22.89l.11-.41c.53-2.46,1.17-5.03,1.88-7.68,1.21-4.69-.85-8.89-5.56-11.25-5.01-2.41-10.23-4.44-15.5-6.05l-3.58-1.1-1.68,3.35c-2.14,4.3-4.55,8.59-7.17,12.75-7.1,11.28-15.52,20.5-25.07,27.44-6.97,5.17-14.23,9.13-21.6,11.81l-3.22,1.17.32,3.4c1.4,14.72,4.78,27.19,10.07,37.05,6.66,12.41,17.33,22.2,31.65,29.05,10.09,5.04,21.06,8.12,32.62,9.17,3.19.28,6.39.43,9.59.43,6.39,0,12.78-.57,19.11-1.71,1.88-.34,3.75-.72,5.62-1.16,3.1-.73,6.17-1.58,9.18-2.57,7.98-2.6,15.65-6.11,22.89-10.48,10.06-6.07,18.75-13.63,25.78-22.41,7.38-8.89,13.06-18.46,16.89-28.46,3.91-10.23,5.27-21.49,4.09-33.44-2.11-21.86-12.13-39.65-29.9-52.91-6.39-4.53-11.93-9.86-16.46-15.84-4.02-5.33-5.01-12.13-3.03-20.84.76-3.54,2.05-6.99,3.82-10.3.79-1.49,2.28-3.19,6.72-3.19,1.98,0,2.58.37,2.6.37.53.46.85.95,1.05,1.57.3,1.04.53,2.35.67,3.91.14,2.19.57,4.21,1.28,6,1.68,6,4.71,10.46,8.96,13.31,3.98,2.64,8.78,4.32,14.29,4.96,6.58.74,11.64-.83,15.05-4.64,2.69-2.99,5.01-6.58,6.9-10.67,3.95-8.74,5.95-17.4,5.95-25.74,0-.58-.02-1.17-.04-1.75Z"/>
    <g>
      <path class="cls-1" d="M618.57,646.25c-.16-3.17-1.52-7.61-7.08-10.64-6.32-3.7-11.49-7.98-15.37-12.78-3.96-4.88-7.17-10.23-9.54-15.91-2.46-5.86-4.39-11.97-5.74-18.13-1.38-6.41-2.65-13.05-3.75-19.67-1.96-13.72-3.68-27.59-5.08-41.26-1.42-13.72-2.99-27.69-4.69-41.53-1.15-8.94-2.9-17.72-5.22-26.13-2.46-8.92-7.27-17.01-14.21-23.95-5.77-6.11-12.62-8.85-20.39-8.16-8.04.71-13.97,5.35-17.06,13.31-5.26,12.44-11.28,24.73-17.86,36.52-1.42,2.52-2.81,5.01-4.25,7.51l-.69,1.18.11,1.38c.41,5.03.48,10.3.21,15.67-.64,12.76-2.99,25.51-7.01,37.88-4.02,12.36-9.49,24.07-16.25,34.85-7.08,11.26-15.5,20.48-25.08,27.44-8.62,6.39-17.72,10.96-27.03,13.58l-2.39.67-.67,2.39c-1.96,7.01-3.17,14.46-3.56,22.22-.62,20.16,8.18,35.24,26.18,44.85,18.71,9.81,37.21,9.05,55.03-2.34,7.22-4.71,12.29-10.37,15.05-16.85,2.9-6.87,2.37-14.64-1.58-23.17-2.81-5.88-4.25-12.04-4.25-18.29,0-6.74.28-13.5.83-20.11.51-3.61,1.29-6.94,2.32-9.88.34-.97,2.71-1.4,6.02-1.08,2.32.23,4.69.85,4.72,1.72.14,3.33.21,6.69.21,10.02,0,12.27,1.4,24.07,4.16,35.05,2.8,11.2,7.65,22.11,14.36,32.31,5.61,9.04,13.03,15.24,22.04,18.41,4.96,1.73,10.25,2.6,15.81,2.6,4.36,0,8.87-.53,13.53-1.6,21.14-4.35,33.74-17.12,37.47-37.97.62-3.42.87-6.83.71-10.13ZM524.19,561.05l-15.95-1.47c-.09-.01-.16-.12-.11-.21l9.91-17.12c.05-.11.21-.09.24.02l6.04,18.6c.03.09-.04.17-.14.17Z"/>
      <path class="cls-1" d="M784.61,469.52l-.05-.17c-3.31-9.93-8.22-18.36-14.59-25.03-6.44-6.74-13.84-11.48-22.04-14.11-8.19-2.64-16.83-3.03-25.61-1.19-8.8,1.86-17.13,6.2-24.87,12.99-4.73,4.41-7.44,5.45-8.64,5.68-.09.02-2.21.35-7.72-5.15-7.79-7.79-15.49-10.43-22.85-7.84-5.15,1.79-11.47,6.59-12.3,19.03-1.38,13.77-4.25,27.17-8.5,39.83-4.28,12.67-8.66,25.98-12.99,39.56-5.29,16.48-11.52,32.78-18.52,48.43-3.4,7.58-6.44,15.49-9.08,23.49l-.61,1.81.9,1.68c1.65,3.03,3.61,5.97,5.86,8.73,3.19,3.95,7.49,7.51,12.85,10.66,6.99,3.91,11.19,10.45,11.54,17.91.2,3.97-.09,8.05-.83,12.14-1.84,10.19-5.68,18.97-11.45,26.09l-3.58,4.41,5.15,2.41c7.15,3.31,14.71,4.98,22.62,4.98,7.29,0,14.89-1.41,22.73-4.23,7.24-2.64,12.25-6.39,14.9-11.15,2.74-4.96,2.78-11.38.14-18.98-2.99-9.51-4.71-19.42-5.12-29.45-.34-8.39-.26-17.08.23-25.88,11.87,4.07,23.38,5.76,34.32,4.98,12.85-.9,25.28-5.77,36.93-14.43,4.32-3.13,8.39-6.8,12.2-10.97,3.82-4.18,7.36-8.87,10.62-14.04,6.39-10.16,11.54-21.22,15.33-32.87,3.79-11.65,6-23.61,6.59-35.56.58-12.03-.62-23.38-3.58-33.74ZM724,517.58c-.97,4.25-2.26,8.38-3.82,12.29-1.56,3.88-3.61,7.65-6.1,11.2-2.39,3.38-5.51,6.36-9.26,8.85-4.66,3.11-8.5,3.97-11.75,2.57-1.15-.48-4.64-1.95-5.61-10.13-1.31-9.44-.53-18.39,2.34-26.61,2.94-8.41,7.42-16.5,13.42-24.12,2.09-2.87,4.25-4.25,6.85-4.25,1.49,0,3.15.46,5.01,1.34,3.42,1.72,6.32,3.93,8.62,6.59,1.91,2.21,2.9,5.4,2.97,9.45-.73,3.88-1.59,8.07-2.66,12.81Z"/>
      <path class="cls-1" d="M475.54,469.53l-.05-.19c-3.31-9.93-8.21-18.36-14.59-25.03-6.44-6.74-13.86-11.48-22.04-14.11-8.23-2.64-16.85-3.03-25.63-1.19-8.8,1.86-17.12,6.2-24.85,12.99-4.73,4.42-7.44,5.45-8.64,5.68-.02.02-2.21.37-7.72-5.15-7.81-7.79-15.49-10.43-22.87-7.84-5.14,1.79-11.44,6.59-12.29,19.03-1.38,13.79-4.25,27.17-8.51,39.83-4.28,12.73-8.66,26.06-12.98,39.56-5.29,16.46-11.52,32.75-18.52,48.43-7.19,16.07-12.71,33.11-16.46,50.68-1.79,9.26-2,18.14-.65,26.41,1.45,8.83,6.32,16.8,14.51,23.74,10.96,8.99,22.99,13.49,35.99,13.49,7.27,0,14.87-1.41,22.73-4.25,7.24-2.64,12.25-6.39,14.89-11.15,2.76-4.96,2.8-11.38.14-18.99-2.97-9.47-4.69-19.38-5.11-29.44-.34-8.39-.25-17.08.25-25.88,11.86,4.07,23.38,5.76,34.32,4.98,12.83-.9,25.28-5.77,36.91-14.43,4.32-3.13,8.39-6.8,12.21-10.97,3.81-4.18,7.36-8.87,10.6-14.06,6.41-10.18,11.56-21.22,15.35-32.85,3.77-11.65,6-23.61,6.59-35.56.58-12.03-.62-23.38-3.58-33.72ZM414.93,517.56c-.95,4.18-2.25,8.32-3.84,12.3-1.56,3.91-3.61,7.68-6.09,11.2-2.37,3.36-5.49,6.36-9.26,8.85-4.66,3.11-8.5,3.97-11.75,2.58-1.15-.5-4.64-1.96-5.63-10.13-1.31-9.45-.51-18.41,2.35-26.63,2.94-8.41,7.42-16.5,13.42-24.14,2.09-2.87,4.25-4.25,6.85-4.25,1.51,0,3.15.46,5.01,1.36,3.42,1.72,6.32,3.93,8.62,6.59,1.91,2.21,2.9,5.38,2.96,9.45-.8,4.27-1.68,8.57-2.64,12.8Z"/>
      <path class="cls-1" d="M784.61,469.52l-.05-.17c-3.31-9.93-8.22-18.36-14.59-25.03-6.44-6.74-13.84-11.48-22.04-14.11-8.19-2.64-16.83-3.03-25.61-1.19-8.8,1.86-17.13,6.2-24.87,12.99-4.73,4.41-7.44,5.45-8.64,5.68-.09.02-2.21.35-7.72-5.15-7.79-7.79-15.49-10.43-22.85-7.84-5.15,1.79-11.47,6.59-12.3,19.03-1.38,13.77-4.25,27.17-8.5,39.83-4.28,12.67-8.66,25.98-12.99,39.56-5.29,16.48-11.52,32.78-18.52,48.43-3.4,7.58-6.44,15.49-9.08,23.49l-.61,1.81.9,1.68c1.65,3.03,3.61,5.97,5.86,8.73,3.19,3.95,7.49,7.51,12.85,10.66,6.99,3.91,11.19,10.45,11.54,17.91.2,3.97-.09,8.05-.83,12.14-1.84,10.19-5.68,18.97-11.45,26.09l-3.58,4.41,5.15,2.41c7.15,3.31,14.71,4.98,22.62,4.98,7.29,0,14.89-1.41,22.73-4.23,7.24-2.64,12.25-6.39,14.9-11.15,2.74-4.96,2.78-11.38.14-18.98-2.99-9.51-4.71-19.42-5.12-29.45-.34-8.39-.26-17.08.23-25.88,11.87,4.07,23.38,5.76,34.32,4.98,12.85-.9,25.28-5.77,36.93-14.43,4.32-3.13,8.39-6.8,12.2-10.97,3.82-4.18,7.36-8.87,10.62-14.04,6.39-10.16,11.54-21.22,15.33-32.87,3.79-11.65,6-23.61,6.59-35.56.58-12.03-.62-23.38-3.58-33.74ZM724,517.58c-.97,4.25-2.26,8.38-3.82,12.29-1.56,3.88-3.61,7.65-6.1,11.2-2.39,3.38-5.51,6.36-9.26,8.85-4.66,3.11-8.5,3.97-11.75,2.57-1.15-.48-4.64-1.95-5.61-10.13-1.31-9.44-.53-18.39,2.34-26.61,2.94-8.41,7.42-16.5,13.42-24.12,2.09-2.87,4.25-4.25,6.85-4.25,1.49,0,3.15.46,5.01,1.34,3.42,1.72,6.32,3.93,8.62,6.59,1.91,2.21,2.9,5.4,2.97,9.45-.73,3.88-1.59,8.07-2.66,12.81Z"/>
    </g>
    <g>
      <path class="cls-1" d="M618.57,646.25c-.16-3.17-1.52-7.61-7.08-10.64-6.32-3.7-11.49-7.98-15.37-12.78-3.96-4.88-7.17-10.23-9.54-15.91-2.46-5.86-4.39-11.97-5.74-18.13-1.38-6.41-2.65-13.05-3.75-19.67-1.96-13.72-3.68-27.59-5.08-41.26-1.42-13.72-2.99-27.69-4.69-41.53-1.15-8.94-2.9-17.72-5.22-26.13-2.46-8.92-7.27-17.01-14.21-23.95-5.77-6.11-12.62-8.85-20.39-8.16-8.04.71-13.97,5.35-17.06,13.31-5.26,12.44-11.28,24.73-17.86,36.52-1.42,2.52-2.81,5.01-4.25,7.51l-.69,1.18.11,1.38c.41,5.03.48,10.3.21,15.67-.64,12.76-2.99,25.51-7.01,37.88-4.02,12.36-9.49,24.07-16.25,34.85-7.08,11.26-15.5,20.48-25.08,27.44-8.62,6.39-17.72,10.96-27.03,13.58l-2.39.67-.67,2.39c-1.96,7.01-3.17,14.46-3.56,22.22-.62,20.16,8.18,35.24,26.18,44.85,18.71,9.81,37.21,9.05,55.03-2.34,7.22-4.71,12.29-10.37,15.05-16.85,2.9-6.87,2.37-14.64-1.58-23.17-2.81-5.88-4.25-12.04-4.25-18.29,0-6.74.28-13.5.83-20.11.51-3.61,1.29-6.94,2.32-9.88.34-.97,2.71-1.4,6.02-1.08,2.32.23,4.69.85,4.72,1.72.14,3.33.21,6.69.21,10.02,0,12.27,1.4,24.07,4.16,35.05,2.8,11.2,7.65,22.11,14.36,32.31,5.61,9.04,13.03,15.24,22.04,18.41,4.96,1.73,10.25,2.6,15.81,2.6,4.36,0,8.87-.53,13.53-1.6,21.14-4.35,33.74-17.12,37.47-37.97.62-3.42.87-6.83.71-10.13ZM524.19,561.05l-15.95-1.47c-.09-.01-.16-.12-.11-.21l9.91-17.12c.05-.11.21-.09.24.02l6.04,18.6c.03.09-.04.17-.14.17Z"/>
      <path class="cls-1" d="M475.54,469.53l-.05-.19c-3.31-9.93-8.21-18.36-14.59-25.03-6.44-6.74-13.86-11.48-22.04-14.11-8.23-2.64-16.85-3.03-25.63-1.19-8.8,1.86-17.12,6.2-24.85,12.99-4.73,4.42-7.44,5.45-8.64,5.68-.02.02-2.21.37-7.72-5.15-7.81-7.79-15.49-10.43-22.87-7.84-5.14,1.79-11.44,6.59-12.29,19.03-1.38,13.79-4.25,27.17-8.51,39.83-4.28,12.73-8.66,26.06-12.98,39.56-5.29,16.46-11.52,32.75-18.52,48.43-7.19,16.07-12.71,33.11-16.46,50.68-1.79,9.26-2,18.14-.65,26.41,1.45,8.83,6.32,16.8,14.51,23.74,10.96,8.99,22.99,13.49,35.99,13.49,7.27,0,14.87-1.41,22.73-4.25,7.24-2.64,12.25-6.39,14.89-11.15,2.76-4.96,2.8-11.38.14-18.99-2.97-9.47-4.69-19.38-5.11-29.44-.34-8.39-.25-17.08.25-25.88,11.86,4.07,23.38,5.76,34.32,4.98,12.83-.9,25.28-5.77,36.91-14.43,4.32-3.13,8.39-6.8,12.21-10.97,3.81-4.18,7.36-8.87,10.6-14.06,6.41-10.18,11.56-21.22,15.35-32.85,3.77-11.65,6-23.61,6.59-35.56.58-12.03-.62-23.38-3.58-33.72ZM414.93,517.56c-.95,4.18-2.25,8.32-3.84,12.3-1.56,3.91-3.61,7.68-6.09,11.2-2.37,3.36-5.49,6.36-9.26,8.85-4.66,3.11-8.5,3.97-11.75,2.58-1.15-.5-4.64-1.96-5.63-10.13-1.31-9.45-.51-18.41,2.35-26.63,2.94-8.41,7.42-16.5,13.42-24.14,2.09-2.87,4.25-4.25,6.85-4.25,1.51,0,3.15.46,5.01,1.36,3.42,1.72,6.32,3.93,8.62,6.59,1.91,2.21,2.9,5.38,2.96,9.45-.8,4.27-1.68,8.57-2.64,12.8Z"/>
      <path class="cls-1" d="M968.22,481.68c0,13.85-3.15,27.86-9.37,41.64-.05.11-.11.23-.16.35-3.51,7.58-7.96,14.4-13.21,20.24-2.23,2.49-4.67,4.73-7.28,6.72,6.46,12.54,10.49,26.4,11.94,41.29,1.78,17.99-.39,35.15-6.45,51-5.3,13.87-13.05,27.01-23.03,39.09-9.85,12.24-21.87,22.69-35.74,31.06-9.75,5.88-20.12,10.62-30.83,14.12-4.02,1.32-8.2,2.49-12.41,3.47-2.5.59-5.06,1.11-7.6,1.57-7.5,1.35-15.15,2.11-22.77,2.28-.34,1.05-.72,2.09-1.13,3.13.77,8.08-.27,15.93-3.09,23.34-2.18,5.71-5.28,11.04-9.22,15.85-4.1,5.07-9.04,9.37-14.67,12.78-5.29,3.2-11.03,5.54-17.05,6.95-4.39,1.03-8.88,1.55-13.35,1.55-1.73,0-3.49-.08-5.22-.23-3.28-.3-6.49-.87-9.62-1.72-1.18.28-2.39.51-3.6.7-2.32.36-4.67.54-6.99.54-2.57,0-5.13-.22-7.65-.65-1.85.45-3.74.78-5.67,1.01-1.9.21-3.81.33-5.7.33-4.49,0-8.94-.62-13.22-1.83-.42-.12-.83-.24-1.25-.38-1.4.41-2.81.77-4.26,1.09-.06.01-.11.03-.17.04-3.59.77-7.26,1.15-10.89,1.15-3.2,0-6.41-.3-9.55-.89-.61-.11-1.22-.24-1.83-.38-3.35.81-6.78,1.22-10.28,1.22-.78,0-1.57-.02-2.36-.06-3.51-.19-6.93-.75-10.23-1.7-4.2,1.19-8.5,1.8-12.83,1.8-4.72,0-9.41-.72-13.93-2.14-.23-.07-.47-.15-.7-.23-.38-.13-.75-.27-1.12-.4-1.95.64-3.94,1.18-5.96,1.59-3.65.75-7.37,1.14-11.03,1.14s-7.24-.38-10.78-1.12c-3.4.75-6.83,1.13-10.25,1.13-3.08,0-6.16-.31-9.14-.92-.54-.11-1.11-.24-1.69-.38-.5.07-1,.14-1.49.2-.08.01-.16.02-.25.03-1.98.22-3.98.33-5.94.33-5,0-9.84-.71-14.44-2.08-5.59,1.95-11.39,2.94-17.22,2.94-.76,0-1.54-.02-2.3-.05-4.65-.21-9.2-1.04-13.59-2.46-1.58.48-3.19.9-4.83,1.25-.06.01-.12.03-.17.04-3.59.76-7.26,1.15-10.89,1.15-3.2,0-6.41-.3-9.56-.89-1.71-.32-3.39-.72-5.03-1.2-3.62,1.04-7.35,1.69-11.15,1.95-.08,0-.16.01-.24.02-1.02.06-2.05.09-3.06.09-4.25,0-8.42-.55-12.42-1.61-1.83.21-3.67.31-5.49.31-3.24,0-6.49-.33-9.65-.98-1.38-.28-2.74-.63-4.07-1.03-.19.07-.38.15-.57.22-.03.01-.06.02-.09.03-5.63,2.04-11.42,3.07-17.2,3.07-11.32,0-22-3.87-30.9-11.21-.14-.12-.28-.23-.42-.35-4.16-3.53-7.62-7.7-10.26-12.29-.01,9.67-3.37,18.96-9.7,26.6-4.79,5.77-11,10.25-18.46,13.29-.92.38-1.86.71-2.81,1.02-9.27,2.97-17.81,3.35-24.21,3.35-1.76,0-3.4-.03-4.99-.06-1.35-.03-2.62-.05-3.79-.05-.82,0-1.52.01-2.12.04-.52.02-1.04.03-1.56.03h-.11c-6.18-.02-12.55-.03-18.95-.03-7.38,0-14.8-.01-21.98-.04-2.27.03-4.8.06-7.27.06-10.06,0-20.95-.48-32.33-3.97-13.45-4.11-25.22-11.85-34.99-22.99-12.66-14.39-19.47-30.85-19.68-47.59-.07-5.02-.05-9.99-.03-15.74.02-5.29.04-11.28,0-18.83v-.44c.17-28.67.07-64.77-.03-99.69-.15-51.43-.28-100,.37-129.35.04-1.92.23-3.84.55-5.73,3.32-19.19,15.01-37.18,32.06-49.36.18-.13.37-.26.55-.39,3.62-2.49,7.31-4.56,11.04-6.3.02-1.32.06-2.47.1-3.42.01-.29.03-.58.04-.87.93-15.28,5.1-27.75,12.74-38.14,6.33-8.61,18.19-19.69,38.8-23.76.11-.02.22-.04.33-.07,5.08-1,9.58-1.38,12.92-1.59.15-.01.31-.02.46-.03,7.9-.41,16.54-.63,24.98-.63,9.75,0,18.66.28,26.5.85,11.67.65,22.22,3.75,31.16,8.97,6-7.94,13.57-14.85,22.48-20.45,12.53-7.87,27.24-12.84,42.54-14.36,5.12-.58,10.52-.89,16.95-.96.16,0,.32,0,.48,0,.21,0,.41,0,.62,0,4.23.07,8.54.1,13.18.1,15.5,0,31.6-.39,47.18-.76,16-.39,32.54-.78,48.9-.78,8.18,0,15.66.09,22.86.3.08,0,.17,0,.25,0,15.17.52,33.06,2.07,50.76,9.63,15.36,6.5,27.86,16.07,37.16,28.45,8.14,10.84,13.82,23.94,16.91,38.94,1.08.44,2.17.93,3.27,1.46,8.1-4.6,16.65-7.86,25.59-9.75.02,0,.04,0,.06-.01,6.2-1.3,12.49-1.96,18.68-1.96,9.09,0,18.08,1.41,26.7,4.19,13.6,4.36,25.82,11.9,36.37,22.4,2.78-2.39,5.7-4.67,8.73-6.82,1.3-.93,2.67-1.86,4.05-2.76.23-.15.45-.29.67-.43,5.91-3.69,12.16-6.81,18.58-9.28,5.83-2.25,11.91-4.01,18.09-5.22.01,0,.03,0,.04,0,7.03-1.38,14.17-2.08,21.23-2.08,5.85,0,11.72.48,17.45,1.43.01,0,.03,0,.04,0,12.31,2.05,24.12,6.1,35.1,12.05,12.83,6.94,23.47,16.5,31.61,28.42,10.31,15.03,15.83,30.99,16.41,47.44,0,.05,0,.11,0,.16.03.75.06,1.77.06,2.96Z"/>
      <path class="cls-1" d="M784.61,469.52l-.05-.17c-3.31-9.93-8.22-18.36-14.59-25.03-6.44-6.74-13.84-11.48-22.04-14.11-8.19-2.64-16.83-3.03-25.61-1.19-8.8,1.86-17.13,6.2-24.87,12.99-4.73,4.41-7.44,5.45-8.64,5.68-.09.02-2.21.35-7.72-5.15-7.79-7.79-15.49-10.43-22.85-7.84-5.15,1.79-11.47,6.59-12.3,19.03-1.38,13.77-4.25,27.17-8.5,39.83-4.28,12.67-8.66,25.98-12.99,39.56-5.29,16.48-11.52,32.78-18.52,48.43-3.4,7.58-6.44,15.49-9.08,23.49l-.61,1.81.9,1.68c1.65,3.03,3.61,5.97,5.86,8.73,3.19,3.95,7.49,7.51,12.85,10.66,6.99,3.91,11.19,10.45,11.54,17.91.2,3.97-.09,8.05-.83,12.14-1.84,10.19-5.68,18.97-11.45,26.09l-3.58,4.41,5.15,2.41c7.15,3.31,14.71,4.98,22.62,4.98,7.29,0,14.89-1.41,22.73-4.23,7.24-2.64,12.25-6.39,14.9-11.15,2.74-4.96,2.78-11.38.14-18.98-2.99-9.51-4.71-19.42-5.12-29.45-.34-8.39-.26-17.08.23-25.88,11.87,4.07,23.38,5.76,34.32,4.98,12.85-.9,25.28-5.77,36.93-14.43,4.32-3.13,8.39-6.8,12.2-10.97,3.82-4.18,7.36-8.87,10.62-14.04,6.39-10.16,11.54-21.22,15.33-32.87,3.79-11.65,6-23.61,6.59-35.56.58-12.03-.62-23.38-3.58-33.74ZM724,517.58c-.97,4.25-2.26,8.38-3.82,12.29-1.56,3.88-3.61,7.65-6.1,11.2-2.39,3.38-5.51,6.36-9.26,8.85-4.66,3.11-8.5,3.97-11.75,2.57-1.15-.48-4.64-1.95-5.61-10.13-1.31-9.44-.53-18.39,2.34-26.61,2.94-8.41,7.42-16.5,13.42-24.12,2.09-2.87,4.25-4.25,6.85-4.25,1.49,0,3.15.46,5.01,1.34,3.42,1.72,6.32,3.93,8.62,6.59,1.91,2.21,2.9,5.4,2.97,9.45-.73,3.88-1.59,8.07-2.66,12.81Z"/>
    </g>
  </g>
  <g>
    <g id="LK6nc3-2" data-name="LK6nc3">
      <g>
        <path class="cls-2" d="M357.29,420.73c-.86-.08-1.73-.12-2.6-.12-3.34,0-6.66.57-9.86,1.69-.47.16-.94.34-1.4.52-.76-6.41-.63-14.31-5.73-17.02-1.56-.73-3.44-.82-5.28-.87-11.8-.12-35.95-.24-47.68-.33-7.33-.21-11.2.77-13.34,8.51-1.91,6.08.19,17.14-7.27,19.62-1.75.43-3.62-.2-5.04-1.69-3.43-3.79-3.41-9.95-3.22-14.91.88-14.47,6.34-23.64,20.71-26.4h.07c2.65-.54,5.24-.78,7.93-.95,13.57-.71,32.15-.9,47.07.2,11.34.55,20.41,5.32,23.96,16.74,1.39,4.74,2.1,9.99,1.69,15.01Z"/>
        <path class="cls-2" d="M324.68,765.91c-24.14-2.95-48.91,2.07-72.99-1.05-20.5-3.36-25.51-15.85-26.28-34.94-.59-12.42-1.58-26.06-1.22-38.08,2.39-44.77.75-123.75,1.19-182.07-.01-5.24.01-10.23,0-15.37.02-5.3-.16-10.09,2-14.79,4.5-10.38,17.08-16.41,28.42-17.06,22.08-1.31,44.4.27,66.6.61.57-3.48,1.04-7.01,1.39-10.55.09-1.21.22-2.39.39-3.54-20.25-.07-40.62-1.16-60.82-.97-12.12.13-25.11,1.06-35.34,8.1-8.4,6-14.82,15.13-16.45,24.5-1.09,49.34.09,158.9-.33,228.42.09,15.94-.1,25.17.03,34.25.09,8.43,4.37,16.14,10.08,22.63,12.37,14.14,25.81,14.02,45.37,13.76,13.49.04,27.81.04,41.22.07,8.92-.36,17.32.95,24.88-1.47,9.55-3.9.62-11.2-8.16-12.45ZM647.89,408.52c-3.68-19.38-13.01-33.01-31.6-40.85-11.67-4.99-24.41-6.14-36.97-6.57-43.28-1.2-88.05,1.86-131.68,1.16-4.48.05-8.94.24-13.35.75-18.15,1.74-36.82,11.59-43.62,29.28-4.14,10.12-3.82,21.54-6.84,31.93-.62,2.35-1.46,4.54-2.5,6.57,5.88-4.9,12.1-8.7,18.62-11.35,1.01-6.97,1.71-13.99,4.17-20.35,8.03-20.88,33.46-23.48,52.99-23.96,42.76-.86,86.9,1.57,129.92,1.31,4.75.23,9.48.72,14.1,1.75,13.17,2.61,25.38,11.3,29.18,24.54,2.1,6.47,2.71,12.64,4.46,18.74,1.12,3.98,2.8,7.8,4.8,11.44,3.14-4.32,7.3-7.65,12.32-9.79-1.71-4.66-2.89-9.67-4-14.58Z"/>
      </g>
    </g>
    <g>
      <path class="cls-2" d="M410.84,757.07c-1.41-1.19-2.23-2.54-2.47-4.03-.24-1.49-.2-3.08.12-4.76.7-3.31,1.73-6.49,3.08-9.53,1.35-3.04,2.54-6.16,3.57-9.36.81-2.55,1.64-5.07,2.48-7.57.84-2.5,1.39-5.1,1.66-7.82.11-1.57.7-2.55,1.79-2.93,1.08-.38,2.24.05,3.49,1.3.92.92,1.66,1.33,2.23,1.22.57-.11,1.26-.54,2.07-1.3,1.35-1.19,2.8-1.95,4.34-2.28,1.54-.33,3.03-.26,4.46.2,1.43.46,2.72,1.29,3.85,2.48,1.14,1.19,2,2.69,2.6,4.48.54,1.9.76,3.96.65,6.19-.11,2.23-.51,4.42-1.22,6.59-.7,2.17-1.65,4.21-2.84,6.11-1.19,1.9-2.57,3.42-4.14,4.56-2.11,1.57-4.31,2.44-6.61,2.61-2.3.16-4.72-.27-7.26-1.3-.16,2.12-.2,4.18-.12,6.19.08,2.01.42,3.96,1.01,5.86.43,1.25.45,2.24.04,2.97-.41.73-1.2,1.32-2.39,1.75-3.9,1.41-7.36.87-10.39-1.63ZM428.69,720.68c-1.19,1.52-2.08,3.13-2.68,4.84-.6,1.71-.76,3.54-.49,5.5.16,1.36.69,2.23,1.58,2.61.89.38,1.91.19,3.04-.57.81-.54,1.47-1.18,1.99-1.91.51-.73.93-1.51,1.26-2.32.32-.81.58-1.64.77-2.48.19-.84.37-1.7.53-2.56,0-1.03-.26-1.84-.77-2.44-.51-.6-1.15-1.09-1.91-1.47-1.35-.65-2.46-.38-3.33.81Z"/>
      <path class="cls-2" d="M450.19,758.05c-1.14.16-2.23.14-3.29-.08-1.05-.22-1.99-.61-2.8-1.18s-1.49-1.29-2.03-2.16c-.54-.87-.89-1.84-1.05-2.93-.49-3.58.03-7.08,1.54-10.5,1.41-3.04,2.8-6.05,4.18-9.04,1.38-2.98,2.77-6,4.18-9.04.65-1.41,1.16-2.81,1.54-4.19.38-1.38.49-2.86.32-4.44-.11-.92-.04-1.76.2-2.52.24-.76.88-1.3,1.91-1.63,1.03-.27,1.97-.24,2.84.08.86.33,1.51.92,1.95,1.79.32.6.64,1.02.93,1.26.3.24.59.34.89.28.3-.05.59-.2.89-.45.3-.24.61-.56.93-.94,2.6-2.61,5.71-3.2,9.33-1.79,1.73.76,3.02,1.81,3.85,3.13.84,1.33,1.31,2.94,1.42,4.84.16,3.37-.18,6.53-1.01,9.48-.84,2.96-2.64,5.58-5.4,7.86-1.03.81-2.1,1.52-3.21,2.12-1.11.6-2.34.95-3.69,1.06-.7.05-1.19.23-1.46.53-.27.3-.22.83.16,1.59.32.76.61,1.56.85,2.4.24.84.53,1.67.85,2.48.16.43.35.84.57,1.22.22.38.47.71.77.98.3.27.65.45,1.05.53s.88.01,1.42-.2c1.08-.43,1.89-1.03,2.43-1.79.54-.76.7-1.76.49-3.01-.05-.33-.16-.64-.32-.94-.16-.3-.28-.61-.37-.94-.08-.33-.08-.62,0-.9.08-.27.34-.54.77-.81.76-.43,1.5-.5,2.23-.2.73.3,1.42.64,2.07,1.02,1.35.81,2.3,1.86,2.84,3.13.54,1.28.76,2.67.65,4.19-.11,1.47-.5,2.84-1.18,4.11-.68,1.28-1.56,2.42-2.64,3.42-1.08,1-2.35,1.82-3.81,2.44-1.46.62-3,.99-4.63,1.1-2.71.16-4.94-.56-6.69-2.16-1.76-1.6-2.88-4-3.37-7.21-.27-1.79-.46-3.61-.57-5.45-.11-1.84-.24-3.69-.41-5.54-.05-.27-.11-.56-.16-.85-.05-.3-.3-.56-.73-.77-.81,2.06-1.25,4.15-1.3,6.27-.05,2.12.11,4.23.49,6.35.43,2.61.32,4.49-.32,5.66-.65,1.17-2.03,1.94-4.14,2.32ZM466.5,719.21c-.6,0-1.18.19-1.74.57-.57.38-1.08.9-1.54,1.55-.46.65-.84,1.4-1.14,2.24-.3.84-.45,1.67-.45,2.48.05.98.27,1.78.65,2.4.38.62,1.08.94,2.11.94,1.57-.05,2.84-.72,3.81-1.99.97-1.27,1.41-2.84,1.3-4.68-.05-.92-.28-1.72-.69-2.4-.41-.68-1.18-1.04-2.31-1.1Z"/>
      <path class="cls-2" d="M498.55,759.19c-1.79.38-3.54.41-5.27.08-1.73-.33-3.3-.95-4.71-1.87-1.41-.92-2.6-2.12-3.57-3.58-.97-1.47-1.65-3.12-2.03-4.97-1.25-6.51-.99-12.56.77-18.16,1.76-5.59,4.8-10.83,9.13-15.71.38-.43.78-.83,1.22-1.18.43-.35.86-.69,1.3-1.02,2.27-1.57,4.53-2.51,6.78-2.81,2.24-.3,4.3-.04,6.17.77,1.87.81,3.46,2.14,4.79,3.99,1.32,1.85,2.2,4.15,2.64,6.92.16,1.09.26,2.2.28,3.34.03,1.14.09,2.25.2,3.34.16,3.47-.11,6.84-.81,10.1-.7,3.26-1.73,6.43-3.08,9.53-1.3,3.09-3.11,5.56-5.44,7.41-2.33,1.85-5.11,3.12-8.36,3.83ZM499.61,721.33c-3.25,3.09-5.41,6.53-6.49,10.3-1.08,3.77-1.54,7.78-1.38,12.01.05,1.41.47,2.66,1.26,3.75.78,1.09,1.93,1.79,3.45,2.12,1.46.33,2.7.14,3.73-.57,1.03-.7,1.89-1.65,2.6-2.85,3.08-5.21,4.73-10.83,4.95-16.85-.05-1.03-.12-2.04-.2-3.01-.08-.98-.28-1.95-.61-2.93-1.52-4.45-3.95-5.1-7.3-1.95Z"/>
      <path class="cls-2" d="M537.75,755.28c-1.68,1.52-3.45,2.63-5.32,3.34-1.87.71-3.71,1.02-5.52.94-1.81-.08-3.56-.53-5.23-1.34-1.68-.81-3.19-2.01-4.54-3.58-.76-.92-1.25-1.82-1.46-2.69-.22-.87-.11-1.87.32-3.01,1.62-4.83,3.16-9.65,4.63-14.45s2.57-9.76,3.33-14.86c.11-.6.18-1.19.2-1.79.03-.6.07-1.19.12-1.79.05-1.3.17-2.37.37-3.22.19-.84.57-1.48,1.14-1.91.57-.43,1.34-.73,2.31-.9.97-.16,2.27-.22,3.9-.16,2.43-.05,4.68.6,6.73,1.95,2.06,1.36,3.87,3.37,5.44,6.02,1.89,3.15,3.02,6.51,3.37,10.1.35,3.58.16,7.08-.57,10.5-.73,3.42-1.92,6.62-3.57,9.61-1.65,2.99-3.53,5.4-5.64,7.25ZM527.36,745.19c-.11,1.36.08,2.13.57,2.32.49.19,1.22.01,2.19-.53,1.24-.7,2.28-1.56,3.12-2.56.84-1,1.58-2.13,2.23-3.38.81-1.52,1.38-3.12,1.7-4.8.32-1.68.41-3.31.24-4.88-.16-1.57-.57-3.05-1.22-4.44-.65-1.38-1.54-2.54-2.68-3.46-.22,2.71-.72,5.24-1.5,7.57-.78,2.33-1.66,4.64-2.64,6.92-.54,1.14-.99,2.32-1.34,3.54-.35,1.22-.58,2.46-.69,3.7Z"/>
      <path class="cls-2" d="M548.7,748.36c-.11-2.44.07-4.8.53-7.08.46-2.28,1.15-4.53,2.07-6.76,1.51-3.58,2.97-7.16,4.38-10.75,1.41-3.58,2.27-7.35,2.6-11.32.11-1.36.57-2.18,1.38-2.48.81-.3,1.81-.12,3,.53,1.57.81,2.62,2.02,3.16,3.62.54,1.6.57,3.46.08,5.58-.65,2.61-1.3,5.17-1.95,7.69-.65,2.52-1.27,5.09-1.87,7.69-.22.87-.32,1.76-.32,2.69s-.03,1.85-.08,2.77c0,.54.09,1.06.28,1.55.19.49.58.84,1.18,1.06.59.27,1.16.3,1.7.08.54-.22,1-.57,1.38-1.06.43-.6.85-1.18,1.26-1.75s.74-1.18,1.01-1.83c1.51-3.64,2.84-7.3,3.98-10.99,1.14-3.69,1.84-7.54,2.11-11.56,0-.43-.04-.88-.12-1.34-.08-.46-.12-.92-.12-1.38s.11-.87.32-1.22c.22-.35.65-.61,1.3-.77,1.24-.33,2.31-.14,3.21.57.89.71,1.64,1.55,2.23,2.52.59.87.93,1.78,1.01,2.73.08.95.09,1.91.04,2.89-.11,2.39-.43,4.74-.97,7.04-.54,2.31-1.05,4.6-1.54,6.88-.27,1.09-.5,2.16-.69,3.22-.19,1.06-.2,2.13-.04,3.22.27,1.68.77,2.84,1.5,3.46.73.62,1.96.94,3.69.94,1.08,0,1.96.26,2.64.77.68.52,1.04,1.4,1.1,2.65.16,4.99-1.81,8.39-5.92,10.18-2.27.98-4.27,1.29-6.01.94-1.73-.35-3.46-1.48-5.19-3.38-.65-.7-1.19-1.02-1.62-.94-.43.08-.95.34-1.54.77-1.95,1.58-4.3,2.52-7.06,2.85-3.41.38-6.22-.38-8.44-2.28-2.22-1.9-3.44-4.56-3.65-7.98Z"/>
      <path class="cls-2" d="M609.48,755.36c-2.43,1.95-4.96,3.2-7.59,3.74-2.62.54-5.13.43-7.51-.33-2.38-.76-4.48-2.12-6.29-4.07-1.81-1.95-3.12-4.42-3.94-7.41-.76-2.93-.97-6.07-.65-9.4s1.1-6.59,2.31-9.77c1.22-3.18,2.81-6.12,4.79-8.83,1.97-2.71,4.23-4.91,6.78-6.59,1.68-1.09,3.43-1.91,5.27-2.48,1.84-.57,3.79-.56,5.84.04,1.57.44,2.88,1.17,3.94,2.2,1.05,1.03,1.72,2.33,1.99,3.91.27,1.63.03,3.07-.73,4.32-.76,1.25-1.7,2.39-2.84,3.42-.87.76-1.54.96-2.03.61-.49-.35-.78-1.04-.89-2.08-.05-.65-.07-1.34-.04-2.08.03-.73-.37-1.26-1.18-1.59-.81-.27-1.5-.13-2.07.41-.57.54-1.1,1.06-1.58,1.55-.97.92-1.89,2.08-2.76,3.46-.87,1.38-1.61,2.85-2.23,4.4-.62,1.55-1.11,3.12-1.46,4.72-.35,1.6-.53,3.08-.53,4.44-.05,1.95.38,3.91,1.3,5.86.49.98,1.11,1.72,1.87,2.24.76.52,1.57.81,2.43.9.86.08,1.7-.08,2.52-.49s1.54-1.07,2.19-1.99c.11-.22.2-.42.28-.61.08-.19.2-.37.37-.53.22-.27.38-.64.49-1.1.11-.46.23-.9.37-1.3.13-.41.34-.73.61-.98.27-.24.7-.28,1.3-.12,1.24.33,2.23,1.01,2.96,2.04.73,1.03,1.15,2.2,1.26,3.5.27,2.06-.03,3.92-.89,5.58-.87,1.66-2.08,3.13-3.65,4.44Z"/>
      <path class="cls-2" d="M639.02,755.61c-1.3,1.57-2.85,2.69-4.67,3.34-1.81.65-3.58.7-5.32.16-1.79-.6-3.21-1.65-4.26-3.18-1.05-1.52-1.64-3.36-1.74-5.54-.11-3.2.31-6.23,1.26-9.08.95-2.85,2.04-5.69,3.29-8.51.86-1.9,1.79-3.8,2.76-5.7.97-1.9,1.81-3.93,2.52-6.11-1.08.11-2.08.2-3,.28-.92.08-1.84.12-2.76.12-2.16-.05-4.15-.73-5.96-2.04s-3.1-2.98-3.85-5.05c-.43-.98-.32-1.82.32-2.52.65-.76,1.38-.9,2.19-.41,1.68.98,3.38,1.62,5.11,1.91,1.73.3,3.45.38,5.15.24,1.7-.13,3.41-.42,5.11-.85,1.7-.43,3.42-.9,5.15-1.38.97-.27,1.95-.57,2.92-.9.97-.33,1.97-.52,3-.57,1.84-.11,3.49.22,4.95.98,1.46.76,2.52,1.87,3.16,3.34.7,1.57.78,3.01.24,4.31-.54,1.3-1.27,2.58-2.19,3.83-.49.6-1.01,1.03-1.58,1.3-.57.27-1.18-.05-1.83-.98-.32-.38-.73-.7-1.22-.98-2.49-1.63-4.29-2.24-5.4-1.83-1.11.41-1.99,2.05-2.64,4.93-.65,2.77-1.3,5.52-1.95,8.26-.65,2.74-.97,5.58-.97,8.51.05,1.85.22,3.62.49,5.33.27,1.71.95,3.35,2.03,4.93.49.71.69,1.36.61,1.95-.08.6-.39,1.22-.93,1.87Z"/>
      <path class="cls-2" d="M656.54,759.43c-1.08-.05-2.07-.31-2.96-.77-.89-.46-1.68-1.1-2.35-1.91-.68-.81-1.19-1.78-1.54-2.89-.35-1.11-.53-2.32-.53-3.62,0-2.06.17-4.1.53-6.11.35-2.01.82-3.99,1.42-5.94.86-2.88,1.74-5.71,2.64-8.51.89-2.8,1.8-5.6,2.72-8.43.43-1.36.74-2.73.93-4.11.19-1.38.18-2.78-.04-4.19-.11-.6-.11-1.17,0-1.71.11-.54.51-.95,1.22-1.22.76-.22,1.43-.26,2.03-.12.59.14,1.14.56,1.62,1.26.92,1.3,1.47,2.69,1.66,4.15.19,1.47.26,2.96.2,4.48-.05,2.55-.31,5.04-.77,7.45-.46,2.42-.93,4.84-1.42,7.29-.32,1.58-.61,3.12-.85,4.64-.24,1.52-.37,3.04-.37,4.56s.15,3.04.45,4.56c.3,1.52.82,3.04,1.58,4.56.38.65.43,1.37.16,2.16-.27.79-.72,1.52-1.34,2.2-.62.68-1.38,1.24-2.27,1.67-.89.44-1.8.62-2.72.57Z"/>
      <path class="cls-2" d="M681.37,759.19c-1.79.38-3.54.41-5.27.08-1.73-.33-3.3-.95-4.71-1.87-1.41-.92-2.6-2.12-3.57-3.58-.97-1.47-1.65-3.12-2.03-4.97-1.25-6.51-.99-12.56.77-18.16,1.76-5.59,4.8-10.83,9.13-15.71.38-.43.78-.83,1.22-1.18.43-.35.86-.69,1.3-1.02,2.27-1.57,4.53-2.51,6.78-2.81,2.24-.3,4.3-.04,6.17.77,1.87.81,3.46,2.14,4.79,3.99,1.33,1.85,2.2,4.15,2.64,6.92.16,1.09.26,2.2.28,3.34.03,1.14.09,2.25.2,3.34.16,3.47-.11,6.84-.81,10.1-.7,3.26-1.73,6.43-3.08,9.53-1.3,3.09-3.11,5.56-5.44,7.41-2.33,1.85-5.11,3.12-8.36,3.83ZM682.43,721.33c-3.25,3.09-5.41,6.53-6.49,10.3-1.08,3.77-1.54,7.78-1.38,12.01.05,1.41.47,2.66,1.26,3.75.78,1.09,1.93,1.79,3.45,2.12,1.46.33,2.7.14,3.73-.57,1.03-.7,1.89-1.65,2.6-2.85,3.08-5.21,4.73-10.83,4.95-16.85-.05-1.03-.12-2.04-.2-3.01-.08-.98-.28-1.95-.61-2.93-1.52-4.45-3.95-5.1-7.3-1.95Z"/>
      <path class="cls-2" d="M723.98,757.89c-1.68-.87-3.02-2.02-4.02-3.46-1-1.44-1.8-3.03-2.39-4.76-1.03-3.04-1.72-6.11-2.07-9.2-.35-3.09-.61-6.24-.77-9.44-.43,1.79-.85,3.6-1.26,5.41-.41,1.82-.69,3.64-.85,5.45-.16,1.82-.18,3.64-.04,5.45.13,1.82.53,3.65,1.18,5.5.59,1.74.53,3.2-.2,4.4-.73,1.19-2.04,1.9-3.94,2.12-1.41.16-2.73.07-3.98-.28-1.25-.35-2.33-.91-3.25-1.67-.92-.76-1.66-1.72-2.23-2.89-.57-1.17-.88-2.48-.93-3.95-.11-2.33.16-4.59.81-6.76.65-2.17,1.46-4.29,2.43-6.35,1.89-3.96,3.57-7.96,5.03-12.01,1.46-4.04,2.38-8.32,2.76-12.82.11-1.25.7-2.09,1.79-2.52,1.08-.43,2.24-.35,3.49.24,2.22,1.14,3.81,2.63,4.79,4.48.97,1.85,1.57,3.96,1.79,6.35.22,2.44.43,4.86.65,7.25.22,2.39.73,4.75,1.54,7.08.11.33.23.69.37,1.1.13.41.34.99.61,1.75.59-2.12,1.22-4.15,1.87-6.11.65-1.95,1.26-3.89,1.83-5.82.57-1.93,1.03-3.85,1.38-5.78.35-1.93.55-3.89.61-5.9,0-.38-.01-.75-.04-1.1-.03-.35-.01-.72.04-1.1.16-1.14.78-1.93,1.87-2.36.65-.27,1.16-.23,1.54.12.38.35.73.75,1.05,1.18.92,1.25,1.5,2.54,1.74,3.87.24,1.33.2,2.73-.12,4.19-.43,2.12-.88,4.23-1.34,6.35-.46,2.12-.93,4.21-1.42,6.27-.6,2.77-.95,5.55-1.05,8.35-.11,2.8.46,5.5,1.7,8.1.43.92.68,1.75.73,2.48.05.73-.04,1.41-.28,2.04-.24.62-.6,1.22-1.05,1.79-.46.57-.99,1.13-1.58,1.67-1.25,1.14-2.67,1.83-4.26,2.08-1.6.24-3.1-.01-4.5-.77Z"/>
      <path class="cls-2" d="M745.07,757.72c-2.6-1.25-4.49-2.98-5.68-5.21-1.19-2.22-1.84-5.16-1.95-8.79-.11-1.36.26-2.77,1.1-4.23.84-1.47,2.2-2.71,4.1-3.75,1.51-.81,2.97-1.06,4.38-.73,1.41.33,2.79.81,4.14,1.47.54.27.74.67.61,1.18-.14.52-.26,1.02-.37,1.51-.6,1.9-.69,3.53-.28,4.89.41,1.36,1.37,2.61,2.88,3.74.81.6,1.68,1.09,2.6,1.47.92.38,1.87.27,2.84-.33,1.08-.6,1.92-1.36,2.52-2.28.59-.92.84-2.04.73-3.34-.11-1.84-.56-3.5-1.34-4.97-.78-1.47-1.83-2.82-3.12-4.07-1.08-1.03-2.11-2.1-3.08-3.22-.97-1.11-1.84-2.32-2.6-3.62-.7-1.3-1.11-2.69-1.22-4.15-.11-1.47.05-2.9.49-4.31.43-1.41,1.12-2.74,2.07-3.99.95-1.25,2.12-2.33,3.53-3.26,1.3-.81,2.7-1.37,4.22-1.67,1.51-.3,3-.33,4.46-.08s2.84.72,4.14,1.42c1.3.71,2.35,1.66,3.16,2.85,1.08,1.57,1.65,3.15,1.7,4.72.05,1.57-.3,3.2-1.06,4.88-.32.71-.72,1.32-1.18,1.83-.46.52-1.18.72-2.15.61-.92-.11-1.7-.38-2.35-.81-.65-.43-1.11-1.14-1.38-2.12-.11-.27-.18-.58-.2-.94-.03-.35-.08-.66-.16-.94-.08-.27-.23-.5-.45-.69-.22-.19-.57-.28-1.05-.28-.97,0-1.65.35-2.03,1.06-.38.71-.65,1.44-.81,2.2-.43,1.9-.19,3.46.73,4.68.92,1.22,2.03,2.29,3.33,3.22,3.19,2.39,4.98,5.56,5.36,9.53.22,2.17-.03,4.18-.73,6.02-.7,1.85-1.73,3.58-3.08,5.21-1.3,1.63-2.87,3-4.71,4.11-1.84,1.11-3.8,1.91-5.88,2.4-2.08.49-4.18.64-6.29.45-2.11-.19-4.09-.75-5.92-1.67Z"/>
    </g>
    <path class="cls-2" d="M929.55,479.93c-.32-9.01-3.58-18.09-9.68-26.97-4.64-6.8-10.73-12.27-18.13-16.27-7.19-3.89-14.94-6.56-23.05-7.91-8.14-1.34-16.55-1.2-24.96.44-4.01.79-7.91,1.92-11.69,3.38-4.15,1.6-8.15,3.6-11.98,5.99-.96.63-1.9,1.27-2.82,1.92-6.54,4.65-12.17,10.04-16.76,16.1-5.26,6.9-9.13,14.37-11.54,22.18-.87,2.82-1.56,5.74-2.07,8.71-.83,5.1-1.06,10.3-.65,15.45.14,2.02.35,3.77.62,5.33,1.06,6.28,3.17,12.39,6.33,18.25,4.09,7.01,8.83,13.59,14.09,19.59,3.24,3.68,6.58,7.28,9.98,10.74,2.12,2.16,4.27,4.26,6.43,6.31,3.07,2.96,5.87,6.04,8.37,9.24,2.75,3.51,5.14,7.16,7.16,10.92,3.77,7.05,5.96,15.15,6.49,24.2.48,5.84-.53,10.64-3.13,14.64-2.53,3.93-5.98,7.14-10.52,9.82-.35.2-.7.41-1.06.6l-.19.11c-3.9,2.39-7.35,2.83-10.89,1.36-.89-.36-1.78-.75-2.66-1.17-3.48-1.63-6.82-3.63-9.94-5.92-7.12-5.35-11.67-11.15-13.51-17.28-1.86-6.21-1.36-13.92,1.47-22.89l.11-.41c.53-2.46,1.17-5.03,1.88-7.68,1.21-4.69-.85-8.89-5.56-11.25-5.01-2.41-10.23-4.44-15.5-6.05l-3.58-1.1-1.68,3.35c-2.14,4.3-4.55,8.59-7.17,12.75-7.1,11.28-15.52,20.5-25.07,27.44-6.97,5.17-14.23,9.13-21.6,11.81l-3.22,1.17.32,3.4c1.4,14.72,4.78,27.19,10.07,37.05,6.66,12.41,17.33,22.2,31.65,29.05,10.09,5.04,21.06,8.12,32.62,9.17,3.19.28,6.39.43,9.59.43,6.39,0,12.78-.57,19.11-1.71,1.88-.34,3.75-.72,5.62-1.16,3.1-.73,6.17-1.58,9.18-2.57,7.98-2.6,15.65-6.11,22.89-10.48,10.06-6.07,18.75-13.63,25.78-22.41,7.38-8.89,13.06-18.46,16.89-28.46,3.91-10.23,5.27-21.49,4.09-33.44-2.11-21.86-12.13-39.65-29.9-52.91-6.39-4.53-11.93-9.86-16.46-15.84-4.02-5.33-5.01-12.13-3.03-20.84.76-3.54,2.05-6.99,3.82-10.3.79-1.49,2.28-3.19,6.72-3.19,1.98,0,2.58.37,2.6.37.53.46.85.95,1.05,1.57.3,1.04.53,2.35.67,3.91.14,2.19.57,4.21,1.28,6,1.68,6,4.71,10.46,8.96,13.31,3.98,2.64,8.78,4.32,14.29,4.96,6.58.74,11.64-.83,15.05-4.64,2.69-2.99,5.01-6.58,6.9-10.67,3.95-8.74,5.95-17.4,5.95-25.74,0-.58-.02-1.17-.04-1.75Z"/>
    <g>
      <path class="cls-2" d="M618.57,646.25c-.16-3.17-1.52-7.61-7.08-10.64-6.32-3.7-11.49-7.98-15.37-12.78-3.96-4.88-7.17-10.23-9.54-15.91-2.46-5.86-4.39-11.97-5.74-18.13-1.38-6.41-2.65-13.05-3.75-19.67-1.96-13.72-3.68-27.59-5.08-41.26-1.42-13.72-2.99-27.69-4.69-41.53-1.15-8.94-2.9-17.72-5.22-26.13-2.46-8.92-7.27-17.01-14.21-23.95-5.77-6.11-12.62-8.85-20.39-8.16-8.04.71-13.97,5.35-17.06,13.31-5.26,12.44-11.28,24.73-17.86,36.52-1.42,2.52-2.81,5.01-4.25,7.51l-.69,1.18.11,1.38c.41,5.03.48,10.3.21,15.67-.64,12.76-2.99,25.51-7.01,37.88-4.02,12.36-9.49,24.07-16.25,34.85-7.08,11.26-15.5,20.48-25.08,27.44-8.62,6.39-17.72,10.96-27.03,13.58l-2.39.67-.67,2.39c-1.96,7.01-3.17,14.46-3.56,22.22-.62,20.16,8.18,35.24,26.18,44.85,18.71,9.81,37.21,9.05,55.03-2.34,7.22-4.71,12.29-10.37,15.05-16.85,2.9-6.87,2.37-14.64-1.58-23.17-2.81-5.88-4.25-12.04-4.25-18.29,0-6.74.28-13.5.83-20.11.51-3.61,1.29-6.94,2.32-9.88.34-.97,2.71-1.4,6.02-1.08,2.32.23,4.69.85,4.72,1.72.14,3.33.21,6.69.21,10.02,0,12.27,1.4,24.07,4.16,35.05,2.8,11.2,7.65,22.11,14.36,32.31,5.61,9.04,13.03,15.24,22.04,18.41,4.96,1.73,10.25,2.6,15.81,2.6,4.36,0,8.87-.53,13.53-1.6,21.14-4.35,33.74-17.12,37.47-37.97.62-3.42.87-6.83.71-10.13ZM524.19,561.05l-15.95-1.47c-.09-.01-.16-.12-.11-.21l9.91-17.12c.05-.11.21-.09.24.02l6.04,18.6c.03.09-.04.17-.14.17Z"/>
      <path class="cls-2" d="M784.61,469.52l-.05-.17c-3.31-9.93-8.22-18.36-14.59-25.03-6.44-6.74-13.84-11.48-22.04-14.11-8.19-2.64-16.83-3.03-25.61-1.19-8.8,1.86-17.13,6.2-24.87,12.99-4.73,4.41-7.44,5.45-8.64,5.68-.09.02-2.21.35-7.72-5.15-7.79-7.79-15.49-10.43-22.85-7.84-5.15,1.79-11.47,6.59-12.3,19.03-1.38,13.77-4.25,27.17-8.5,39.83-4.28,12.67-8.66,25.98-12.99,39.56-5.29,16.48-11.52,32.78-18.52,48.43-3.4,7.58-6.44,15.49-9.08,23.49l-.61,1.81.9,1.68c1.65,3.03,3.61,5.97,5.86,8.73,3.19,3.95,7.49,7.51,12.85,10.66,6.99,3.91,11.19,10.45,11.54,17.91.2,3.97-.09,8.05-.83,12.14-1.84,10.19-5.68,18.97-11.45,26.09l-3.58,4.41,5.15,2.41c7.15,3.31,14.71,4.98,22.62,4.98,7.29,0,14.89-1.41,22.73-4.23,7.24-2.64,12.25-6.39,14.9-11.15,2.74-4.96,2.78-11.38.14-18.98-2.99-9.51-4.71-19.42-5.12-29.45-.34-8.39-.26-17.08.23-25.88,11.87,4.07,23.38,5.76,34.32,4.98,12.85-.9,25.28-5.77,36.93-14.43,4.32-3.13,8.39-6.8,12.2-10.97,3.82-4.18,7.36-8.87,10.62-14.04,6.39-10.16,11.54-21.22,15.33-32.87,3.79-11.65,6-23.61,6.59-35.56.58-12.03-.62-23.38-3.58-33.74ZM724,517.58c-.97,4.25-2.26,8.38-3.82,12.29-1.56,3.88-3.61,7.65-6.1,11.2-2.39,3.38-5.51,6.36-9.26,8.85-4.66,3.11-8.5,3.97-11.75,2.57-1.15-.48-4.64-1.95-5.61-10.13-1.31-9.44-.53-18.39,2.34-26.61,2.94-8.41,7.42-16.5,13.42-24.12,2.09-2.87,4.25-4.25,6.85-4.25,1.49,0,3.15.46,5.01,1.34,3.42,1.72,6.32,3.93,8.62,6.59,1.91,2.21,2.9,5.4,2.97,9.45-.73,3.88-1.59,8.07-2.66,12.81Z"/>
      <path class="cls-2" d="M475.54,469.53l-.05-.19c-3.31-9.93-8.21-18.36-14.59-25.03-6.44-6.74-13.86-11.48-22.04-14.11-8.23-2.64-16.85-3.03-25.63-1.19-8.8,1.86-17.12,6.2-24.85,12.99-4.73,4.42-7.44,5.45-8.64,5.68-.02.02-2.21.37-7.72-5.15-7.81-7.79-15.49-10.43-22.87-7.84-5.14,1.79-11.44,6.59-12.29,19.03-1.38,13.79-4.25,27.17-8.51,39.83-4.28,12.73-8.66,26.06-12.98,39.56-5.29,16.46-11.52,32.75-18.52,48.43-7.19,16.07-12.71,33.11-16.46,50.68-1.79,9.26-2,18.14-.65,26.41,1.45,8.83,6.32,16.8,14.51,23.74,10.96,8.99,22.99,13.49,35.99,13.49,7.27,0,14.87-1.41,22.73-4.25,7.24-2.64,12.25-6.39,14.89-11.15,2.76-4.96,2.8-11.38.14-18.99-2.97-9.47-4.69-19.38-5.11-29.44-.34-8.39-.25-17.08.25-25.88,11.86,4.07,23.38,5.76,34.32,4.98,12.83-.9,25.28-5.77,36.91-14.43,4.32-3.13,8.39-6.8,12.21-10.97,3.81-4.18,7.36-8.87,10.6-14.06,6.41-10.18,11.56-21.22,15.35-32.85,3.77-11.65,6-23.61,6.59-35.56.58-12.03-.62-23.38-3.58-33.72ZM414.93,517.56c-.95,4.18-2.25,8.32-3.84,12.3-1.56,3.91-3.61,7.68-6.09,11.2-2.37,3.36-5.49,6.36-9.26,8.85-4.66,3.11-8.5,3.97-11.75,2.58-1.15-.5-4.64-1.96-5.63-10.13-1.31-9.45-.51-18.41,2.35-26.63,2.94-8.41,7.42-16.5,13.42-24.14,2.09-2.87,4.25-4.25,6.85-4.25,1.51,0,3.15.46,5.01,1.36,3.42,1.72,6.32,3.93,8.62,6.59,1.91,2.21,2.9,5.38,2.96,9.45-.8,4.27-1.68,8.57-2.64,12.8Z"/>
      <path class="cls-2" d="M784.61,469.52l-.05-.17c-3.31-9.93-8.22-18.36-14.59-25.03-6.44-6.74-13.84-11.48-22.04-14.11-8.19-2.64-16.83-3.03-25.61-1.19-8.8,1.86-17.13,6.2-24.87,12.99-4.73,4.41-7.44,5.45-8.64,5.68-.09.02-2.21.35-7.72-5.15-7.79-7.79-15.49-10.43-22.85-7.84-5.15,1.79-11.47,6.59-12.3,19.03-1.38,13.77-4.25,27.17-8.5,39.83-4.28,12.67-8.66,25.98-12.99,39.56-5.29,16.48-11.52,32.78-18.52,48.43-3.4,7.58-6.44,15.49-9.08,23.49l-.61,1.81.9,1.68c1.65,3.03,3.61,5.97,5.86,8.73,3.19,3.95,7.49,7.51,12.85,10.66,6.99,3.91,11.19,10.45,11.54,17.91.2,3.97-.09,8.05-.83,12.14-1.84,10.19-5.68,18.97-11.45,26.09l-3.58,4.41,5.15,2.41c7.15,3.31,14.71,4.98,22.62,4.98,7.29,0,14.89-1.41,22.73-4.23,7.24-2.64,12.25-6.39,14.9-11.15,2.74-4.96,2.78-11.38.14-18.98-2.99-9.51-4.71-19.42-5.12-29.45-.34-8.39-.26-17.08.23-25.88,11.87,4.07,23.38,5.76,34.32,4.98,12.85-.9,25.28-5.77,36.93-14.43,4.32-3.13,8.39-6.8,12.2-10.97,3.82-4.18,7.36-8.87,10.62-14.04,6.39-10.16,11.54-21.22,15.33-32.87,3.79-11.65,6-23.61,6.59-35.56.58-12.03-.62-23.38-3.58-33.74ZM724,517.58c-.97,4.25-2.26,8.38-3.82,12.29-1.56,3.88-3.61,7.65-6.1,11.2-2.39,3.38-5.51,6.36-9.26,8.85-4.66,3.11-8.5,3.97-11.75,2.57-1.15-.48-4.64-1.95-5.61-10.13-1.31-9.44-.53-18.39,2.34-26.61,2.94-8.41,7.42-16.5,13.42-24.12,2.09-2.87,4.25-4.25,6.85-4.25,1.49,0,3.15.46,5.01,1.34,3.42,1.72,6.32,3.93,8.62,6.59,1.91,2.21,2.9,5.4,2.97,9.45-.73,3.88-1.59,8.07-2.66,12.81Z"/>
    </g>
    <g>
      <path class="cls-2" d="M618.57,646.25c-.16-3.17-1.52-7.61-7.08-10.64-6.32-3.7-11.49-7.98-15.37-12.78-3.96-4.88-7.17-10.23-9.54-15.91-2.46-5.86-4.39-11.97-5.74-18.13-1.38-6.41-2.65-13.05-3.75-19.67-1.96-13.72-3.68-27.59-5.08-41.26-1.42-13.72-2.99-27.69-4.69-41.53-1.15-8.94-2.9-17.72-5.22-26.13-2.46-8.92-7.27-17.01-14.21-23.95-5.77-6.11-12.62-8.85-20.39-8.16-8.04.71-13.97,5.35-17.06,13.31-5.26,12.44-11.28,24.73-17.86,36.52-1.42,2.52-2.81,5.01-4.25,7.51l-.69,1.18.11,1.38c.41,5.03.48,10.3.21,15.67-.64,12.76-2.99,25.51-7.01,37.88-4.02,12.36-9.49,24.07-16.25,34.85-7.08,11.26-15.5,20.48-25.08,27.44-8.62,6.39-17.72,10.96-27.03,13.58l-2.39.67-.67,2.39c-1.96,7.01-3.17,14.46-3.56,22.22-.62,20.16,8.18,35.24,26.18,44.85,18.71,9.81,37.21,9.05,55.03-2.34,7.22-4.71,12.29-10.37,15.05-16.85,2.9-6.87,2.37-14.64-1.58-23.17-2.81-5.88-4.25-12.04-4.25-18.29,0-6.74.28-13.5.83-20.11.51-3.61,1.29-6.94,2.32-9.88.34-.97,2.71-1.4,6.02-1.08,2.32.23,4.69.85,4.72,1.72.14,3.33.21,6.69.21,10.02,0,12.27,1.4,24.07,4.16,35.05,2.8,11.2,7.65,22.11,14.36,32.31,5.61,9.04,13.03,15.24,22.04,18.41,4.96,1.73,10.25,2.6,15.81,2.6,4.36,0,8.87-.53,13.53-1.6,21.14-4.35,33.74-17.12,37.47-37.97.62-3.42.87-6.83.71-10.13ZM524.19,561.05l-15.95-1.47c-.09-.01-.16-.12-.11-.21l9.91-17.12c.05-.11.21-.09.24.02l6.04,18.6c.03.09-.04.17-.14.17Z"/>
      <path class="cls-2" d="M475.54,469.53l-.05-.19c-3.31-9.93-8.21-18.36-14.59-25.03-6.44-6.74-13.86-11.48-22.04-14.11-8.23-2.64-16.85-3.03-25.63-1.19-8.8,1.86-17.12,6.2-24.85,12.99-4.73,4.42-7.44,5.45-8.64,5.68-.02.02-2.21.37-7.72-5.15-7.81-7.79-15.49-10.43-22.87-7.84-5.14,1.79-11.44,6.59-12.29,19.03-1.38,13.79-4.25,27.17-8.51,39.83-4.28,12.73-8.66,26.06-12.98,39.56-5.29,16.46-11.52,32.75-18.52,48.43-7.19,16.07-12.71,33.11-16.46,50.68-1.79,9.26-2,18.14-.65,26.41,1.45,8.83,6.32,16.8,14.51,23.74,10.96,8.99,22.99,13.49,35.99,13.49,7.27,0,14.87-1.41,22.73-4.25,7.24-2.64,12.25-6.39,14.89-11.15,2.76-4.96,2.8-11.38.14-18.99-2.97-9.47-4.69-19.38-5.11-29.44-.34-8.39-.25-17.08.25-25.88,11.86,4.07,23.38,5.76,34.32,4.98,12.83-.9,25.28-5.77,36.91-14.43,4.32-3.13,8.39-6.8,12.21-10.97,3.81-4.18,7.36-8.87,10.6-14.06,6.41-10.18,11.56-21.22,15.35-32.85,3.77-11.65,6-23.61,6.59-35.56.58-12.03-.62-23.38-3.58-33.72ZM414.93,517.56c-.95,4.18-2.25,8.32-3.84,12.3-1.56,3.91-3.61,7.68-6.09,11.2-2.37,3.36-5.49,6.36-9.26,8.85-4.66,3.11-8.5,3.97-11.75,2.58-1.15-.5-4.64-1.96-5.63-10.13-1.31-9.45-.51-18.41,2.35-26.63,2.94-8.41,7.42-16.5,13.42-24.14,2.09-2.87,4.25-4.25,6.85-4.25,1.51,0,3.15.46,5.01,1.36,3.42,1.72,6.32,3.93,8.62,6.59,1.91,2.21,2.9,5.38,2.96,9.45-.8,4.27-1.68,8.57-2.64,12.8Z"/>
      <path class="cls-2" d="M784.61,469.52l-.05-.17c-3.31-9.93-8.22-18.36-14.59-25.03-6.44-6.74-13.84-11.48-22.04-14.11-8.19-2.64-16.83-3.03-25.61-1.19-8.8,1.86-17.13,6.2-24.87,12.99-4.73,4.41-7.44,5.45-8.64,5.68-.09.02-2.21.35-7.72-5.15-7.79-7.79-15.49-10.43-22.85-7.84-5.15,1.79-11.47,6.59-12.3,19.03-1.38,13.77-4.25,27.17-8.5,39.83-4.28,12.67-8.66,25.98-12.99,39.56-5.29,16.48-11.52,32.78-18.52,48.43-3.4,7.58-6.44,15.49-9.08,23.49l-.61,1.81.9,1.68c1.65,3.03,3.61,5.97,5.86,8.73,3.19,3.95,7.49,7.51,12.85,10.66,6.99,3.91,11.19,10.45,11.54,17.91.2,3.97-.09,8.05-.83,12.14-1.84,10.19-5.68,18.97-11.45,26.09l-3.58,4.41,5.15,2.41c7.15,3.31,14.71,4.98,22.62,4.98,7.29,0,14.89-1.41,22.73-4.23,7.24-2.64,12.25-6.39,14.9-11.15,2.74-4.96,2.78-11.38.14-18.98-2.99-9.51-4.71-19.42-5.12-29.45-.34-8.39-.26-17.08.23-25.88,11.87,4.07,23.38,5.76,34.32,4.98,12.85-.9,25.28-5.77,36.93-14.43,4.32-3.13,8.39-6.8,12.2-10.97,3.82-4.18,7.36-8.87,10.62-14.04,6.39-10.16,11.54-21.22,15.33-32.87,3.79-11.65,6-23.61,6.59-35.56.58-12.03-.62-23.38-3.58-33.74ZM724,517.58c-.97,4.25-2.26,8.38-3.82,12.29-1.56,3.88-3.61,7.65-6.1,11.2-2.39,3.38-5.51,6.36-9.26,8.85-4.66,3.11-8.5,3.97-11.75,2.57-1.15-.48-4.64-1.95-5.61-10.13-1.31-9.44-.53-18.39,2.34-26.61,2.94-8.41,7.42-16.5,13.42-24.12,2.09-2.87,4.25-4.25,6.85-4.25,1.49,0,3.15.46,5.01,1.34,3.42,1.72,6.32,3.93,8.62,6.59,1.91,2.21,2.9,5.4,2.97,9.45-.73,3.88-1.59,8.07-2.66,12.81Z"/>
    </g>
  </g>
</svg>