<?xml version="1.0" encoding="UTF-8"?>
<svg xmlns="http://www.w3.org/2000/svg" viewBox="0 0 1140.69 1140.69">
  <defs>
    <style>
      .cls-1 {
        fill: #234f96;
      }

      .cls-2 {
        fill: #fff;
      }
    </style>
  </defs>
  <g id="Layer_1" data-name="Layer 1">
    <rect class="cls-2" x="0" y="0" width="1140.69" height="1140.69"/>
  </g>
  <g id="Layer_2" data-name="Layer 2">
    <g>
      <path class="cls-1" d="M929.59,455.91c0,12.36-2.85,24.93-8.46,37.36-.04.08-.07.16-.11.24-3.06,6.6-6.9,12.5-11.41,17.53-4.26,4.76-9.5,8.39-15.4,10.74,1.55,2.28,3.01,4.62,4.36,7.01,6.93,12.28,11.18,26.05,12.62,40.93,1.62,16.42-.33,32.02-5.82,46.38-4.94,12.91-12.18,25.18-21.53,36.48-9.15,11.38-20.34,21.11-33.27,28.92-9.14,5.51-18.86,9.96-28.91,13.24-3.76,1.23-7.68,2.33-11.63,3.25-2.33.55-4.72,1.04-7.09,1.46-8,1.44-16.17,2.17-24.29,2.17-2.31,0-4.63-.06-6.94-.18-.34,4.36-1.46,8.67-3.34,12.86-.03.06-.06.13-.09.19-.15.32-.3.64-.45.95.16.96.29,1.94.39,2.92.62,6.37-.18,12.54-2.38,18.33-1.74,4.57-4.24,8.85-7.42,12.73-3.28,4.06-7.23,7.51-11.76,10.24-4.28,2.59-8.92,4.48-13.79,5.63-3.54.83-7.16,1.25-10.77,1.25-1.4,0-2.81-.06-4.21-.19-3.71-.33-7.32-1.12-10.77-2.34-1.87.62-3.79,1.09-5.75,1.39-1.75.27-3.51.4-5.25.4-2.79,0-5.56-.35-8.27-1.03-2.15.7-4.41,1.2-6.73,1.46-1.48.17-2.97.26-4.43.26-1.71,0-3.41-.12-5.09-.35-1.68-.23-3.34-.58-4.96-1.04-1.56-.44-3.07-.98-4.53-1.61-2.31.88-4.71,1.59-7.21,2.14-.04,0-.08.02-.12.02-2.81.6-5.68.9-8.52.9-2.49,0-4.99-.24-7.44-.69-1.48-.28-2.92-.64-4.34-1.07-3.34,1.13-6.8,1.7-10.35,1.7-.58,0-1.17-.01-1.75-.05-3.86-.2-7.57-1.03-11.08-2.44-.34.14-.69.27-1.04.4-3.94,1.42-8,2.13-12.1,2.13-3.55,0-7.07-.54-10.48-1.61-.16-.05-.33-.1-.49-.16-1.69-.56-3.31-1.25-4.87-2.04-2.86,1.28-5.83,2.24-8.88,2.87-2.9.6-5.84.9-8.73.9-3.76,0-7.49-.51-11.1-1.52-3.46,1.01-6.94,1.52-10.39,1.52-2.31,0-4.61-.23-6.84-.68-1.22-.25-2.41-.56-3.59-.94-1.19.25-2.4.44-3.62.59-.06,0-.12.01-.17.02-1.56.17-3.14.26-4.67.26-5.3,0-10.35-1.03-14.98-3.01-.92.43-1.85.82-2.79,1.17-4.74,1.79-9.65,2.7-14.57,2.7-.59,0-1.2-.01-1.79-.04-4.93-.22-9.73-1.34-14.28-3.31-2.48.98-5.07,1.76-7.77,2.35-.04,0-.08.02-.12.02-2.81.6-5.68.9-8.52.9-2.49,0-4.99-.24-7.44-.69-2.57-.48-5.05-1.2-7.43-2.14-3.9,1.52-8.01,2.43-12.24,2.71-.06,0-.12,0-.17.01-.79.05-1.59.07-2.37.07-4.06,0-8.02-.66-11.75-1.92-.1.02-.21.04-.31.06-.32.06-.63.11-.95.15-1.76.25-3.54.38-5.29.38-2.46,0-4.92-.25-7.32-.74-2.49-.51-4.88-1.28-7.16-2.3-1.35.72-2.82,1.38-4.42,1.97-.02,0-.04.01-.06.02-4.38,1.59-8.85,2.39-13.3,2.39-8.61,0-16.77-2.97-23.59-8.59-.1-.08-.2-.16-.29-.24-6.35-5.39-10.4-12.41-11.68-20.31-.76-4.65-.67-9.46.26-14.29.03-.16.07-.33.1-.49,1.1-5.2,2.75-10.28,4.89-15.08.98-2.2,1.85-4.49,2.6-6.82.88-2.76,1.77-5.49,2.65-8.11.2-.59.33-1.22.41-1.92.55-6.22,2.81-11.85,6.38-16.38-2.24-2.33-4.3-4.79-6.17-7.35-.74,1.86-1.55,3.54-2.38,5.03-5.93,10.7-15.86,18.65-29.53,23.63-.03.01-.06.02-.09.04-10.92,3.93-21.8,5.93-32.34,5.93-9.85,0-19.47-1.73-28.6-5.15-8.89-3.33-17.38-8.28-25.23-14.73-.11-.09-.21-.17-.32-.26-6.36-5.39-11.6-11.41-15.57-17.9-4.29-7.01-7.12-14.59-8.42-22.52,0-.01,0-.03,0-.04-1.89-11.6-1.61-23.85.8-36.4.03-.18.07-.35.11-.52,4.24-19.83,10.48-39.05,18.57-57.13,6.76-15.16,12.77-30.87,17.86-46.71,4.41-13.78,8.9-27.49,13.37-40.76,3.69-10.93,6.17-22.51,7.39-34.43.83-10.96,4.27-20.39,10.23-28.03,5.21-6.67,12.22-11.69,20.28-14.5,4.71-1.65,9.59-2.48,14.51-2.48,7.15,0,14.2,1.74,20.96,5.17,1.65.84,3.28,1.78,4.9,2.83,8.87-6.02,18.37-10.13,28.37-12.24.01,0,.03,0,.04,0,5.49-1.15,11.04-1.73,16.5-1.73,7.96,0,15.84,1.23,23.42,3.66,12.68,4.06,24.04,11.28,33.75,21.44,2.01,2.1,3.91,4.31,5.71,6.63.17-.39.34-.79.5-1.18,3.36-8.44,8.47-15.37,15.18-20.61,7.01-5.47,15.58-8.79,24.78-9.61,1.59-.14,3.19-.21,4.76-.21,14.32,0,27.36,5.73,37.74,16.58,10.32,10.4,17.45,22.54,21.18,36.09,2.7,9.78,4.74,20.01,6.08,30.4,0,.05.01.11.02.16,1.74,14.14,3.37,28.58,4.85,42.93,0,.01,0,.02,0,.03.09.86.18,1.73.27,2.59.29-.89.58-1.78.87-2.68,4.43-13.88,8.94-27.61,13.41-40.82,3.67-10.93,6.14-22.51,7.37-34.4.82-10.98,4.26-20.41,10.24-28.06,5.2-6.66,12.21-11.66,20.25-14.47,4.72-1.65,9.61-2.49,14.54-2.49,7.15,0,14.2,1.74,20.96,5.17,1.65.84,3.28,1.78,4.89,2.82,8.87-6.02,18.38-10.12,28.39-12.23.01,0,.03,0,.04,0,5.49-1.15,11.04-1.73,16.51-1.73,7.97,0,15.84,1.23,23.4,3.66,12.67,4.06,24.02,11.27,33.74,21.44,2.31,2.42,4.48,4.98,6.51,7.68,5.02-5.47,10.69-10.47,16.95-14.91,1.21-.86,2.47-1.72,3.74-2.55.16-.1.31-.2.47-.3,5.34-3.34,11-6.17,16.8-8.4,5.3-2.04,10.82-3.64,16.43-4.75,0,0,.02,0,.03,0,6.39-1.25,12.87-1.89,19.28-1.89,5.29,0,10.6.43,15.78,1.29.01,0,.02,0,.03,0,11.2,1.86,21.95,5.55,31.94,10.96,11.33,6.13,20.73,14.57,27.91,25.08,9.17,13.35,14.07,27.42,14.58,41.81,0,.03,0,.07,0,.1.02.72.05,1.61.05,2.64Z"/>
      <g>
        <g>
          <path class="cls-2" d="M372.8,737.21c-1.44-1.22-2.28-2.59-2.53-4.12-.25-1.52-.21-3.15.12-4.86.72-3.38,1.77-6.62,3.15-9.73,1.38-3.1,2.6-6.29,3.65-9.56.83-2.61,1.67-5.18,2.53-7.73.86-2.55,1.42-5.21,1.7-7.98.11-1.61.72-2.61,1.82-2.99,1.1-.39,2.29.06,3.56,1.33.94.94,1.7,1.36,2.28,1.25.58-.11,1.28-.55,2.11-1.33,1.38-1.22,2.86-2,4.43-2.33,1.57-.33,3.09-.26,4.56.21,1.46.47,2.78,1.32,3.94,2.54,1.16,1.22,2.04,2.74,2.65,4.57.55,1.94.77,4.05.66,6.32-.11,2.27-.53,4.52-1.24,6.74-.72,2.22-1.69,4.3-2.9,6.24-1.22,1.94-2.62,3.49-4.23,4.66-2.15,1.61-4.41,2.49-6.76,2.66-2.35.17-4.82-.28-7.42-1.33-.17,2.16-.21,4.27-.12,6.32.08,2.05.43,4.05,1.04,5.99.44,1.28.46,2.29.04,3.04-.41.75-1.23,1.34-2.45,1.79-3.98,1.44-7.52.89-10.61-1.66ZM391.04,700.03c-1.22,1.55-2.13,3.2-2.74,4.95-.61,1.75-.77,3.62-.5,5.61.17,1.39.7,2.27,1.62,2.66.91.39,1.95.19,3.11-.58.83-.55,1.5-1.21,2.03-1.95.52-.75.95-1.54,1.28-2.37.33-.83.59-1.68.79-2.54.19-.86.37-1.73.54-2.62,0-1.05-.26-1.88-.79-2.49-.53-.61-1.17-1.11-1.95-1.5-1.38-.67-2.51-.39-3.4.83Z"/>
          <path class="cls-2" d="M413,738.2c-1.16.17-2.28.14-3.36-.08-1.08-.22-2.03-.62-2.86-1.21s-1.52-1.32-2.07-2.2c-.55-.89-.91-1.88-1.08-2.99-.5-3.66.03-7.23,1.57-10.73,1.44-3.1,2.86-6.18,4.27-9.23,1.41-3.05,2.83-6.13,4.27-9.23.66-1.44,1.19-2.87,1.57-4.28.39-1.41.5-2.92.33-4.53-.11-.94-.04-1.8.21-2.58.25-.78.9-1.33,1.95-1.66,1.05-.28,2.02-.25,2.9.08.88.33,1.55.94,1.99,1.83.33.61.65,1.04.95,1.29.3.25.61.35.91.29.3-.05.61-.21.91-.46.3-.25.62-.57.95-.96,2.65-2.66,5.83-3.27,9.53-1.83,1.77.78,3.08,1.84,3.94,3.2.86,1.36,1.34,3.01,1.45,4.95.17,3.44-.18,6.67-1.04,9.69-.86,3.02-2.69,5.7-5.51,8.02-1.05.83-2.14,1.55-3.27,2.16-1.13.61-2.39.97-3.77,1.08-.72.06-1.22.24-1.49.54-.28.31-.22.85.17,1.62.33.78.62,1.59.87,2.45.25.86.54,1.7.87,2.54.17.44.36.86.58,1.25.22.39.48.72.79,1,.3.28.66.46,1.08.54s.9.01,1.45-.21c1.1-.44,1.93-1.05,2.49-1.83.55-.78.72-1.8.5-3.08-.06-.33-.17-.65-.33-.96-.17-.3-.29-.62-.37-.96-.08-.33-.08-.64,0-.91.08-.28.34-.55.79-.83.77-.44,1.53-.51,2.28-.21.75.31,1.45.65,2.11,1.04,1.38.83,2.35,1.9,2.9,3.2.55,1.3.77,2.73.66,4.28-.11,1.5-.51,2.9-1.2,4.2-.69,1.3-1.59,2.47-2.69,3.49-1.11,1.03-2.4,1.86-3.9,2.49-1.49.64-3.07,1.01-4.72,1.12-2.76.17-5.04-.57-6.84-2.2-1.8-1.63-2.94-4.09-3.44-7.36-.28-1.83-.47-3.69-.58-5.57-.11-1.88-.25-3.77-.41-5.66-.06-.28-.11-.57-.17-.87-.06-.3-.3-.57-.75-.79-.83,2.11-1.27,4.24-1.33,6.4-.06,2.16.11,4.32.5,6.49.44,2.66.33,4.59-.33,5.78-.66,1.19-2.07,1.98-4.23,2.37ZM429.66,698.54c-.61,0-1.2.2-1.78.58-.58.39-1.11.91-1.57,1.58-.47.67-.86,1.43-1.16,2.29-.3.86-.46,1.7-.46,2.54.05,1,.28,1.82.66,2.45.39.64,1.1.96,2.15.96,1.6-.05,2.9-.73,3.9-2.04.99-1.3,1.44-2.9,1.33-4.78-.06-.94-.29-1.76-.7-2.45-.41-.69-1.2-1.07-2.36-1.12Z"/>
          <path class="cls-2" d="M462.4,739.37c-1.82.39-3.62.42-5.39.08-1.77-.33-3.37-.97-4.81-1.91-1.44-.94-2.65-2.16-3.65-3.66-.99-1.5-1.69-3.19-2.07-5.07-1.27-6.65-1.01-12.83.79-18.54,1.8-5.71,4.9-11.06,9.32-16.05.39-.44.8-.84,1.24-1.21.44-.36.88-.71,1.33-1.04,2.32-1.61,4.63-2.56,6.92-2.87,2.29-.3,4.39-.04,6.3.79,1.91.83,3.54,2.19,4.89,4.07,1.35,1.89,2.25,4.24,2.69,7.07.17,1.11.26,2.25.29,3.41.03,1.16.1,2.3.21,3.41.17,3.55-.11,6.99-.83,10.31-.72,3.33-1.77,6.57-3.15,9.73-1.33,3.16-3.18,5.68-5.55,7.57-2.38,1.89-5.22,3.19-8.54,3.91ZM463.48,700.7c-3.32,3.16-5.53,6.67-6.63,10.52-1.11,3.85-1.57,7.94-1.41,12.27.05,1.44.48,2.72,1.28,3.83.8,1.11,1.97,1.83,3.52,2.16,1.49.33,2.76.14,3.81-.58,1.05-.72,1.93-1.69,2.65-2.91,3.15-5.32,4.83-11.06,5.06-17.21-.06-1.05-.12-2.08-.21-3.08-.08-1-.29-2-.62-2.99-1.55-4.55-4.03-5.21-7.46-2Z"/>
          <path class="cls-2" d="M502.44,735.38c-1.71,1.55-3.52,2.69-5.43,3.41-1.91.72-3.79,1.04-5.64.96-1.85-.08-3.63-.54-5.35-1.37-1.71-.83-3.26-2.05-4.64-3.66-.77-.94-1.27-1.86-1.49-2.74-.22-.89-.11-1.91.33-3.08,1.66-4.93,3.23-9.85,4.72-14.76s2.62-9.96,3.4-15.18c.11-.61.18-1.22.21-1.83.03-.61.07-1.22.12-1.83.05-1.33.18-2.42.37-3.28.19-.86.58-1.51,1.16-1.95.58-.44,1.37-.75,2.36-.91.99-.17,2.32-.22,3.98-.17,2.49-.05,4.78.61,6.88,2,2.1,1.39,3.95,3.44,5.55,6.15,1.93,3.22,3.08,6.65,3.44,10.31.36,3.66.17,7.24-.58,10.73s-1.96,6.76-3.65,9.81c-1.69,3.05-3.61,5.52-5.76,7.4ZM491.83,725.06c-.11,1.39.08,2.18.58,2.37.5.2,1.24.01,2.24-.54,1.27-.72,2.33-1.59,3.19-2.62.86-1.03,1.62-2.18,2.28-3.45.83-1.55,1.41-3.19,1.74-4.91.33-1.72.41-3.38.25-4.99-.17-1.61-.58-3.12-1.24-4.53-.66-1.41-1.57-2.59-2.74-3.53-.22,2.77-.73,5.35-1.53,7.73-.8,2.38-1.7,4.74-2.69,7.07-.55,1.16-1.01,2.37-1.37,3.62-.36,1.25-.59,2.51-.7,3.78Z"/>
          <path class="cls-2" d="M513.63,728.31c-.11-2.49.07-4.91.54-7.24.47-2.33,1.17-4.63,2.11-6.9,1.55-3.66,3.04-7.32,4.48-10.98,1.44-3.66,2.32-7.51,2.65-11.56.11-1.39.58-2.23,1.41-2.54.83-.3,1.85-.12,3.07.54,1.6.83,2.68,2.07,3.23,3.7.55,1.64.58,3.53.08,5.7-.66,2.66-1.33,5.28-1.99,7.86-.66,2.58-1.3,5.2-1.91,7.86-.22.89-.33,1.8-.33,2.74s-.03,1.89-.08,2.83c0,.55.1,1.08.29,1.58.19.5.59.86,1.2,1.08.61.28,1.19.31,1.74.08.55-.22,1.02-.58,1.41-1.08.44-.61.87-1.21,1.28-1.79s.76-1.21,1.04-1.87c1.55-3.71,2.9-7.46,4.06-11.23,1.16-3.77,1.88-7.71,2.16-11.81,0-.44-.04-.9-.12-1.37-.08-.47-.12-.94-.12-1.41s.11-.89.33-1.25c.22-.36.66-.62,1.33-.79,1.27-.33,2.36-.14,3.27.58.91.72,1.67,1.58,2.28,2.58.61.89.95,1.82,1.04,2.79.08.97.1,1.95.04,2.95-.11,2.44-.44,4.84-.99,7.19-.55,2.36-1.08,4.7-1.57,7.03-.28,1.11-.51,2.2-.7,3.28-.19,1.08-.21,2.18-.04,3.28.28,1.72.79,2.9,1.53,3.53.75.64,2,.96,3.77.96,1.1,0,2,.26,2.69.79.69.53,1.06,1.43,1.12,2.7.17,5.1-1.85,8.57-6.05,10.4-2.32,1-4.37,1.32-6.13.96-1.77-.36-3.54-1.51-5.3-3.45-.66-.72-1.22-1.04-1.66-.96-.44.08-.97.35-1.57.79-1.99,1.61-4.39,2.58-7.21,2.91-3.48.39-6.35-.39-8.62-2.33-2.27-1.94-3.51-4.66-3.73-8.15Z"/>
          <path class="cls-2" d="M575.71,735.46c-2.49,2-5.07,3.27-7.75,3.83-2.68.55-5.24.44-7.67-.33-2.43-.78-4.57-2.16-6.42-4.16-1.85-2-3.19-4.52-4.02-7.57-.77-2.99-.99-6.2-.66-9.61s1.12-6.74,2.36-9.98c1.24-3.24,2.87-6.25,4.89-9.02,2.02-2.77,4.32-5.02,6.92-6.74,1.71-1.11,3.51-1.95,5.39-2.54,1.88-.58,3.87-.57,5.97.04,1.6.44,2.94,1.19,4.02,2.25,1.08,1.05,1.75,2.38,2.03,3.99.28,1.66.03,3.13-.75,4.41-.77,1.28-1.74,2.44-2.9,3.49-.88.78-1.57.98-2.07.62-.5-.36-.8-1.07-.91-2.12-.06-.67-.07-1.37-.04-2.12.03-.75-.37-1.29-1.2-1.62-.83-.28-1.53-.14-2.11.42-.58.55-1.12,1.08-1.62,1.58-.99.94-1.93,2.12-2.82,3.53-.88,1.41-1.64,2.91-2.28,4.49-.64,1.58-1.13,3.19-1.49,4.82-.36,1.64-.54,3.15-.54,4.53-.06,2,.39,3.99,1.33,5.99.5,1,1.13,1.76,1.91,2.29.77.53,1.6.83,2.49.91.88.08,1.74-.08,2.57-.5s1.57-1.09,2.24-2.04c.11-.22.21-.43.29-.62.08-.19.21-.37.37-.54.22-.28.39-.65.5-1.12.11-.47.23-.91.37-1.33.14-.42.34-.75.62-1,.28-.25.72-.29,1.33-.12,1.27.33,2.28,1.03,3.03,2.08.75,1.05,1.17,2.25,1.28,3.58.28,2.11-.03,4.01-.91,5.7-.88,1.69-2.13,3.2-3.73,4.53Z"/>
          <path class="cls-2" d="M605.88,735.71c-1.33,1.61-2.92,2.74-4.77,3.41-1.85.67-3.66.72-5.43.17-1.82-.61-3.27-1.69-4.35-3.24-1.08-1.55-1.67-3.44-1.78-5.65-.11-3.27.32-6.36,1.28-9.27.97-2.91,2.08-5.81,3.36-8.69.88-1.94,1.82-3.88,2.82-5.82.99-1.94,1.85-4.02,2.57-6.24-1.11.11-2.13.21-3.07.29-.94.08-1.88.12-2.82.12-2.21-.05-4.24-.75-6.09-2.08-1.85-1.33-3.16-3.05-3.94-5.16-.44-1-.33-1.86.33-2.58.66-.78,1.41-.91,2.24-.42,1.71,1,3.45,1.65,5.22,1.95,1.77.31,3.52.39,5.26.25,1.74-.14,3.48-.43,5.22-.87,1.74-.44,3.49-.91,5.26-1.41.99-.28,1.99-.58,2.98-.91.99-.33,2.02-.53,3.07-.58,1.88-.11,3.56.22,5.06,1,1.49.78,2.57,1.91,3.23,3.41.72,1.61.8,3.08.25,4.41-.55,1.33-1.3,2.63-2.24,3.91-.5.61-1.04,1.05-1.62,1.33-.58.28-1.2-.05-1.86-1-.33-.39-.75-.72-1.24-1-2.54-1.66-4.38-2.29-5.51-1.87-1.13.42-2.03,2.09-2.69,5.03-.66,2.83-1.33,5.64-1.99,8.44-.66,2.8-.99,5.7-.99,8.69.05,1.89.22,3.7.5,5.45.28,1.75.97,3.42,2.07,5.03.5.72.7,1.39.62,2-.08.61-.4,1.25-.95,1.91Z"/>
          <path class="cls-2" d="M623.78,739.62c-1.11-.05-2.11-.32-3.03-.79-.91-.47-1.71-1.12-2.4-1.95-.69-.83-1.22-1.82-1.57-2.95-.36-1.14-.54-2.37-.54-3.7,0-2.11.18-4.19.54-6.24.36-2.05.84-4.07,1.45-6.07.88-2.94,1.78-5.83,2.69-8.69.91-2.85,1.84-5.72,2.78-8.61.44-1.39.76-2.79.95-4.2.19-1.41.18-2.84-.04-4.28-.11-.61-.11-1.19,0-1.75.11-.55.52-.97,1.24-1.25.77-.22,1.46-.26,2.07-.12.61.14,1.16.57,1.66,1.29.94,1.33,1.5,2.74,1.7,4.24.19,1.5.26,3.02.21,4.57-.06,2.61-.32,5.14-.79,7.61-.47,2.47-.95,4.95-1.45,7.44-.33,1.61-.62,3.19-.87,4.74-.25,1.55-.37,3.11-.37,4.66s.15,3.11.46,4.66c.3,1.55.84,3.11,1.62,4.66.39.67.44,1.4.17,2.2-.28.8-.73,1.55-1.37,2.25-.64.69-1.41,1.26-2.32,1.7-.91.44-1.84.64-2.78.58Z"/>
          <path class="cls-2" d="M649.14,739.37c-1.82.39-3.62.42-5.39.08-1.77-.33-3.37-.97-4.81-1.91-1.44-.94-2.65-2.16-3.65-3.66-.99-1.5-1.69-3.19-2.07-5.07-1.27-6.65-1.01-12.83.79-18.54,1.8-5.71,4.9-11.06,9.32-16.05.39-.44.8-.84,1.24-1.21.44-.36.88-.71,1.33-1.04,2.32-1.61,4.63-2.56,6.92-2.87,2.29-.3,4.39-.04,6.3.79,1.91.83,3.54,2.19,4.89,4.07,1.35,1.89,2.25,4.24,2.69,7.07.17,1.11.26,2.25.29,3.41.03,1.16.1,2.3.21,3.41.17,3.55-.11,6.99-.83,10.31-.72,3.33-1.77,6.57-3.15,9.73-1.33,3.16-3.18,5.68-5.55,7.57-2.38,1.89-5.22,3.19-8.54,3.91ZM650.22,700.7c-3.32,3.16-5.53,6.67-6.63,10.52-1.11,3.85-1.57,7.94-1.41,12.27.05,1.44.48,2.72,1.28,3.83.8,1.11,1.97,1.83,3.52,2.16,1.49.33,2.76.14,3.81-.58,1.05-.72,1.93-1.69,2.65-2.91,3.15-5.32,4.83-11.06,5.06-17.21-.06-1.05-.12-2.08-.21-3.08-.08-1-.29-2-.62-2.99-1.55-4.55-4.03-5.21-7.46-2Z"/>
          <path class="cls-2" d="M692.66,738.04c-1.71-.89-3.08-2.06-4.1-3.53-1.02-1.47-1.84-3.09-2.45-4.86-1.05-3.1-1.75-6.24-2.11-9.4-.36-3.16-.62-6.37-.79-9.65-.44,1.83-.87,3.67-1.28,5.53-.41,1.86-.7,3.71-.87,5.57-.17,1.86-.18,3.71-.04,5.57.14,1.86.54,3.73,1.2,5.61.61,1.77.54,3.27-.21,4.49-.75,1.22-2.09,1.94-4.02,2.16-1.44.17-2.79.07-4.06-.29-1.27-.36-2.38-.93-3.32-1.7-.94-.78-1.7-1.76-2.28-2.95-.58-1.19-.9-2.54-.95-4.03-.11-2.38.17-4.68.83-6.9.66-2.22,1.49-4.38,2.49-6.49,1.93-4.05,3.65-8.14,5.14-12.27,1.49-4.13,2.43-8.5,2.82-13.1.11-1.27.72-2.13,1.82-2.58,1.1-.44,2.29-.36,3.56.25,2.26,1.16,3.9,2.69,4.89,4.57.99,1.89,1.6,4.05,1.82,6.49.22,2.49.44,4.96.66,7.4.22,2.44.75,4.85,1.57,7.24.11.33.23.71.37,1.12.14.42.34,1.01.62,1.79.61-2.16,1.24-4.24,1.91-6.24.66-2,1.28-3.98,1.86-5.95.58-1.97,1.05-3.94,1.41-5.9.36-1.97.57-3.98.62-6.03,0-.39-.01-.76-.04-1.12-.03-.36-.01-.73.04-1.12.17-1.16.8-1.97,1.91-2.41.66-.28,1.19-.24,1.57.12.39.36.75.76,1.08,1.21.94,1.28,1.53,2.59,1.78,3.95.25,1.36.21,2.79-.12,4.28-.44,2.16-.9,4.32-1.37,6.49-.47,2.16-.95,4.3-1.45,6.4-.61,2.83-.97,5.67-1.08,8.52-.11,2.86.47,5.61,1.74,8.27.44.94.69,1.79.75,2.54.05.75-.04,1.44-.29,2.08-.25.64-.61,1.25-1.08,1.83-.47.58-1.01,1.15-1.62,1.7-1.27,1.16-2.72,1.87-4.35,2.12-1.63.25-3.16-.01-4.6-.79Z"/>
          <path class="cls-2" d="M714.21,737.87c-2.65-1.27-4.59-3.05-5.8-5.32-1.22-2.27-1.88-5.27-1.99-8.98-.11-1.39.26-2.83,1.12-4.32.86-1.5,2.25-2.77,4.19-3.83,1.55-.83,3.04-1.08,4.48-.75,1.44.33,2.85.83,4.23,1.5.55.28.76.68.62,1.21-.14.53-.26,1.04-.37,1.54-.61,1.94-.7,3.6-.29,4.99.41,1.39,1.39,2.66,2.94,3.83.83.61,1.71,1.11,2.65,1.5.94.39,1.91.28,2.9-.33,1.1-.61,1.96-1.39,2.57-2.33.61-.94.86-2.08.75-3.41-.11-1.88-.57-3.58-1.37-5.07-.8-1.5-1.86-2.88-3.19-4.16-1.11-1.05-2.16-2.15-3.15-3.28-.99-1.14-1.88-2.37-2.65-3.7-.72-1.33-1.13-2.74-1.24-4.24-.11-1.5.05-2.97.5-4.41.44-1.44,1.15-2.8,2.11-4.07.97-1.27,2.17-2.38,3.61-3.33,1.33-.83,2.76-1.4,4.31-1.7,1.55-.3,3.07-.33,4.56-.08s2.9.74,4.23,1.46c1.33.72,2.4,1.69,3.23,2.91,1.1,1.61,1.68,3.22,1.74,4.82.05,1.61-.3,3.27-1.08,4.99-.33.72-.73,1.34-1.2,1.87-.47.53-1.2.74-2.2.62-.94-.11-1.74-.39-2.4-.83-.66-.44-1.13-1.16-1.41-2.16-.11-.28-.18-.6-.21-.96-.03-.36-.08-.68-.17-.96-.08-.28-.24-.51-.46-.71-.22-.19-.58-.29-1.08-.29-.99,0-1.69.36-2.07,1.08-.39.72-.66,1.47-.83,2.25-.44,1.94-.19,3.53.75,4.78.94,1.25,2.07,2.34,3.4,3.28,3.26,2.44,5.08,5.68,5.47,9.73.22,2.22-.03,4.27-.75,6.15-.72,1.89-1.77,3.66-3.15,5.32-1.33,1.66-2.93,3.06-4.81,4.2-1.88,1.14-3.88,1.95-6.01,2.45-2.13.5-4.27.65-6.42.46-2.16-.19-4.17-.76-6.05-1.7Z"/>
        </g>
        <path class="cls-2" d="M584.99,624.01c-.16-3.24-1.56-7.78-7.23-10.87-6.46-3.78-11.73-8.15-15.7-13.06-4.05-4.99-7.32-10.45-9.74-16.25-2.51-5.98-4.49-12.22-5.86-18.51-1.41-6.54-2.71-13.33-3.83-20.09-2.01-14.01-3.76-28.19-5.19-42.15-1.45-14.01-3.06-28.28-4.79-42.42-1.18-9.13-2.97-18.1-5.33-26.69-2.51-9.11-7.43-17.37-14.52-24.46-5.89-6.24-12.89-9.04-20.83-8.34-8.21.72-14.27,5.46-17.43,13.6-5.37,12.71-11.52,25.26-18.24,37.3-1.45,2.57-2.87,5.12-4.34,7.67l-.7,1.21.11,1.41c.42,5.13.49,10.52.22,16-.65,13.04-3.06,26.06-7.16,38.69-4.11,12.62-9.69,24.59-16.6,35.6-7.23,11.5-15.84,20.92-25.62,28.03-8.8,6.53-18.1,11.19-27.61,13.87l-2.44.69-.69,2.44c-2.01,7.16-3.24,14.77-3.63,22.69-.63,20.59,8.35,36,26.74,45.81,19.11,10.02,38.01,9.24,56.21-2.39,7.38-4.81,12.55-10.6,15.37-17.21,2.96-7.02,2.42-14.95-1.61-23.67-2.87-6-4.34-12.29-4.34-18.68,0-6.89.29-13.79.85-20.54.52-3.69,1.32-7.09,2.37-10.09.35-.99,2.77-1.43,6.15-1.1,2.37.23,4.79.87,4.82,1.75.15,3.4.22,6.84.22,10.23,0,12.53,1.43,24.59,4.25,35.8,2.86,11.44,7.81,22.58,14.66,33,5.73,9.24,13.31,15.57,22.51,18.8,5.06,1.77,10.47,2.66,16.15,2.66,4.45,0,9.06-.54,13.82-1.63,21.59-4.45,34.46-17.48,38.27-38.78.63-3.49.89-6.98.73-10.34ZM488.58,536.98l-16.29-1.5c-.09-.01-.16-.13-.11-.22l10.13-17.48c.05-.11.22-.09.25.02l6.17,19c.03.09-.04.18-.15.18Z"/>
        <path class="cls-2" d="M754.59,443.49l-.06-.18c-3.38-10.14-8.39-18.75-14.9-25.57-6.58-6.89-14.14-11.73-22.51-14.41-8.37-2.7-17.19-3.09-26.16-1.21-8.99,1.9-17.5,6.33-25.4,13.27-4.83,4.5-7.59,5.57-8.82,5.8-.09.02-2.26.36-7.88-5.26-7.96-7.96-15.82-10.65-23.34-8.01-5.26,1.83-11.72,6.73-12.57,19.44-1.41,14.07-4.34,27.75-8.68,40.68-4.37,12.94-8.84,26.54-13.27,40.41-5.41,16.83-11.77,33.48-18.91,49.47-3.47,7.74-6.58,15.82-9.27,23.99l-.62,1.85.92,1.72c1.68,3.09,3.69,6.09,5.99,8.91,3.25,4.04,7.65,7.67,13.13,10.89,7.14,4,11.43,10.67,11.79,18.3.2,4.05-.09,8.23-.85,12.4-1.88,10.41-5.8,19.38-11.7,26.65l-3.65,4.5,5.26,2.46c7.3,3.38,15.03,5.08,23.11,5.08,7.45,0,15.2-1.44,23.22-4.32,7.39-2.7,12.51-6.53,15.22-11.39,2.8-5.06,2.84-11.63.15-19.39-3.06-9.71-4.81-19.83-5.23-30.08-.34-8.57-.27-17.45.24-26.44,12.13,4.16,23.88,5.88,35.06,5.08,13.13-.92,25.82-5.89,37.72-14.74,4.41-3.2,8.57-6.94,12.46-11.21,3.91-4.27,7.52-9.06,10.85-14.34,6.53-10.38,11.79-21.68,15.66-33.58,3.87-11.89,6.13-24.12,6.73-36.32.6-12.29-.63-23.88-3.65-34.46ZM692.68,492.58c-.99,4.34-2.31,8.56-3.91,12.55-1.59,3.96-3.69,7.81-6.24,11.44-2.44,3.45-5.63,6.49-9.46,9.04-4.76,3.18-8.68,4.05-12.01,2.62-1.18-.49-4.74-1.99-5.73-10.34-1.34-9.64-.54-18.79,2.39-27.18,3-8.59,7.58-16.85,13.71-24.64,2.13-2.93,4.34-4.34,7-4.34,1.52,0,3.22.47,5.12,1.37,3.49,1.75,6.45,4.01,8.8,6.73,1.95,2.26,2.96,5.51,3.04,9.65-.74,3.96-1.63,8.25-2.71,13.09Z"/>
        <path class="cls-2" d="M902.64,454.12c-.32-9.2-3.65-18.48-9.89-27.55-4.74-6.94-10.96-12.53-18.52-16.62-7.34-3.98-15.26-6.71-23.54-8.08-8.32-1.37-16.91-1.23-25.49.45-4.1.81-8.08,1.96-11.94,3.45-4.24,1.63-8.32,3.67-12.23,6.12-.98.64-1.94,1.3-2.88,1.97-6.68,4.75-12.43,10.26-17.12,16.44-5.37,7.05-9.33,14.68-11.79,22.65-.89,2.88-1.59,5.86-2.11,8.9-.85,5.21-1.08,10.52-.67,15.78.14,2.06.36,3.85.63,5.44,1.08,6.42,3.24,12.66,6.47,18.64,4.18,7.16,9.02,13.89,14.39,20.01,3.31,3.76,6.72,7.43,10.19,10.97,2.17,2.2,4.36,4.36,6.57,6.44,3.14,3.02,5.99,6.17,8.55,9.44,2.81,3.59,5.25,7.31,7.31,11.15,3.85,7.2,6.09,15.48,6.63,24.72.49,5.97-.54,10.87-3.2,14.95-2.59,4.02-6.11,7.3-10.74,10.03-.35.21-.71.42-1.08.62l-.2.11c-3.98,2.44-7.51,2.89-11.12,1.39-.91-.37-1.82-.77-2.72-1.19-3.56-1.66-6.97-3.7-10.16-6.04-7.27-5.46-11.92-11.39-13.8-17.65-1.9-6.35-1.39-14.21,1.5-23.38l.11-.42c.54-2.51,1.2-5.13,1.92-7.85,1.23-4.79-.87-9.08-5.68-11.5-5.12-2.46-10.45-4.54-15.84-6.18l-3.65-1.12-1.72,3.42c-2.19,4.4-4.65,8.77-7.32,13.02-7.25,11.52-15.86,20.94-25.6,28.03-7.12,5.28-14.53,9.33-22.06,12.06l-3.29,1.19.33,3.47c1.43,15.04,4.88,27.77,10.29,37.84,6.8,12.67,17.7,22.67,32.33,29.67,10.3,5.15,21.51,8.3,33.32,9.36,3.25.29,6.53.44,9.8.44,6.53,0,13.06-.58,19.52-1.75,1.92-.34,3.83-.74,5.74-1.18,3.17-.74,6.3-1.61,9.38-2.62,8.15-2.66,15.98-6.24,23.38-10.7,10.27-6.2,19.15-13.92,26.33-22.89,7.54-9.08,13.34-18.86,17.25-29.07,3.99-10.45,5.39-21.95,4.18-34.16-2.15-22.33-12.39-40.5-30.54-54.04-6.53-4.63-12.19-10.07-16.82-16.18-4.1-5.44-5.12-12.39-3.09-21.28.77-3.61,2.1-7.14,3.91-10.52.81-1.52,2.33-3.25,6.87-3.25,2.03,0,2.64.38,2.66.38.54.47.87.98,1.07,1.61.31,1.06.54,2.4.69,3.99.15,2.24.58,4.3,1.3,6.13,1.72,6.13,4.81,10.68,9.15,13.6,4.07,2.69,8.97,4.41,14.59,5.06,6.72.76,11.89-.85,15.37-4.74,2.75-3.06,5.12-6.72,7.05-10.9,4.03-8.93,6.08-17.77,6.08-26.29,0-.6-.02-1.2-.04-1.79Z"/>
        <path class="cls-2" d="M438.9,443.5l-.06-.2c-3.38-10.14-8.39-18.75-14.9-25.57-6.58-6.89-14.16-11.73-22.51-14.41-8.41-2.7-17.21-3.09-26.18-1.21-8.99,1.9-17.48,6.33-25.39,13.27-4.83,4.52-7.59,5.57-8.82,5.8-.02.02-2.26.38-7.88-5.26-7.97-7.96-15.82-10.65-23.36-8.01-5.25,1.83-11.68,6.73-12.55,19.44-1.41,14.09-4.34,27.75-8.7,40.68-4.37,13-8.84,26.61-13.25,40.41-5.41,16.81-11.77,33.45-18.91,49.47-7.34,16.42-12.98,33.81-16.82,51.77-1.82,9.46-2.04,18.53-.67,26.98,1.48,9.02,6.45,17.16,14.82,24.25,11.19,9.18,23.49,13.78,36.76,13.78,7.43,0,15.19-1.44,23.22-4.34,7.39-2.7,12.51-6.53,15.2-11.39,2.82-5.06,2.86-11.63.15-19.4-3.04-9.68-4.79-19.8-5.22-30.07-.35-8.57-.25-17.45.25-26.44,12.11,4.16,23.88,5.88,35.06,5.08,13.11-.92,25.82-5.89,37.7-14.74,4.41-3.2,8.57-6.94,12.48-11.21,3.89-4.27,7.52-9.06,10.83-14.36,6.54-10.39,11.81-21.68,15.68-33.56,3.85-11.89,6.13-24.12,6.73-36.32.6-12.29-.63-23.88-3.65-34.44ZM376.99,492.56c-.98,4.27-2.3,8.5-3.92,12.56-1.59,3.99-3.69,7.85-6.22,11.44-2.42,3.44-5.61,6.49-9.46,9.04-4.76,3.18-8.68,4.05-12.01,2.64-1.18-.51-4.74-2.01-5.75-10.34-1.34-9.66-.52-18.8,2.41-27.2,3-8.59,7.58-16.85,13.71-24.66,2.13-2.93,4.34-4.34,7-4.34,1.54,0,3.22.47,5.12,1.39,3.49,1.75,6.45,4.01,8.8,6.73,1.95,2.26,2.96,5.49,3.02,9.65-.82,4.36-1.72,8.75-2.7,13.07Z"/>
        <path class="cls-2" d="M754.59,443.49l-.06-.18c-3.38-10.14-8.39-18.75-14.9-25.57-6.58-6.89-14.14-11.73-22.51-14.41-8.37-2.7-17.19-3.09-26.16-1.21-8.99,1.9-17.5,6.33-25.4,13.27-4.83,4.5-7.59,5.57-8.82,5.8-.09.02-2.26.36-7.88-5.26-7.96-7.96-15.82-10.65-23.34-8.01-5.26,1.83-11.72,6.73-12.57,19.44-1.41,14.07-4.34,27.75-8.68,40.68-4.37,12.94-8.84,26.54-13.27,40.41-5.41,16.83-11.77,33.48-18.91,49.47-3.47,7.74-6.58,15.82-9.27,23.99l-.62,1.85.92,1.72c1.68,3.09,3.69,6.09,5.99,8.91,3.25,4.04,7.65,7.67,13.13,10.89,7.14,4,11.43,10.67,11.79,18.3.2,4.05-.09,8.23-.85,12.4-1.88,10.41-5.8,19.38-11.7,26.65l-3.65,4.5,5.26,2.46c7.3,3.38,15.03,5.08,23.11,5.08,7.45,0,15.2-1.44,23.22-4.32,7.39-2.7,12.51-6.53,15.22-11.39,2.8-5.06,2.84-11.63.15-19.39-3.06-9.71-4.81-19.83-5.23-30.08-.34-8.57-.27-17.45.24-26.44,12.13,4.16,23.88,5.88,35.06,5.08,13.13-.92,25.82-5.89,37.72-14.74,4.41-3.2,8.57-6.94,12.46-11.21,3.91-4.27,7.52-9.06,10.85-14.34,6.53-10.38,11.79-21.68,15.66-33.58,3.87-11.89,6.13-24.12,6.73-36.32.6-12.29-.63-23.88-3.65-34.46ZM692.68,492.58c-.99,4.34-2.31,8.56-3.91,12.55-1.59,3.96-3.69,7.81-6.24,11.44-2.44,3.45-5.63,6.49-9.46,9.04-4.76,3.18-8.68,4.05-12.01,2.62-1.18-.49-4.74-1.99-5.73-10.34-1.34-9.64-.54-18.79,2.39-27.18,3-8.59,7.58-16.85,13.71-24.64,2.13-2.93,4.34-4.34,7-4.34,1.52,0,3.22.47,5.12,1.37,3.49,1.75,6.45,4.01,8.8,6.73,1.95,2.26,2.96,5.51,3.04,9.65-.74,3.96-1.63,8.25-2.71,13.09Z"/>
      </g>
    </g>
  </g>
</svg>